<svg width="60" height="47" viewBox="0 0 60 47" fill="none" xmlns="http://www.w3.org/2000/svg">
	<path
		d="M34.9958 44.9567V34.9995C34.9958 34.5575 34.8202 34.1336 34.5076 33.821C34.1951 33.5085 33.7711 33.3329 33.3291 33.3329H26.6625C26.2205 33.3329 25.7966 33.5085 25.484 33.821C25.1715 34.1336 24.9959 34.5575 24.9959 34.9995V44.9692C24.9959 45.4098 24.8215 45.8324 24.5107 46.1448C24.1999 46.4571 23.7782 46.6336 23.3376 46.6359L11.6627 46.6661C11.2207 46.6661 10.7968 46.4905 10.4842 46.1779C10.1717 45.8654 9.99609 45.4414 9.99609 44.9994V27.9226L29.2031 12.1051C29.4289 11.9231 29.7101 11.8239 30 11.8239C30.2899 11.8239 30.5711 11.9231 30.7969 12.1051L49.9956 27.9163V44.9994C49.9956 45.4414 49.82 45.8654 49.5074 46.1779C49.1949 46.4905 48.7709 46.6661 48.3289 46.6661L36.6624 46.6338C36.4427 46.6338 36.2251 46.5903 36.0222 46.5059C35.8193 46.4215 35.6351 46.2978 35.4802 46.1419C35.3253 45.9861 35.2028 45.8011 35.1196 45.5977C35.0365 45.3943 34.9944 45.1764 34.9958 44.9567Z"
		fill="#EC363F" />
	<path
		d="M59.7165 24.6195L57.0603 27.8486C56.9561 27.9756 56.8278 28.0807 56.6829 28.1581C56.538 28.2354 56.3792 28.2835 56.2157 28.2994C56.0522 28.3154 55.8872 28.299 55.7301 28.2511C55.5729 28.2032 55.4267 28.1249 55.2999 28.0205L30.7971 7.83427C30.5714 7.65232 30.2902 7.5531 30.0002 7.5531C29.7103 7.5531 29.4291 7.65232 29.2034 7.83427L4.70161 28.0205C4.44551 28.231 4.11628 28.3311 3.78634 28.2989C3.4564 28.2667 3.15277 28.1047 2.94226 27.8486L0.286043 24.6195C0.0750535 24.3639 -0.0258045 24.035 0.00564421 23.7051C0.0370929 23.3752 0.198274 23.0712 0.45375 22.8601L26.818 1.14582C27.713 0.409348 28.836 0.0066804 29.995 0.0066804C31.1541 0.0066804 32.2771 0.409348 33.1721 1.14582L42.4959 8.81343V1.24998C42.4959 0.918467 42.6276 0.600529 42.862 0.366112C43.0964 0.131694 43.4144 0 43.7459 0H49.5792C49.9107 0 50.2286 0.131694 50.463 0.366112C50.6974 0.600529 50.8291 0.918467 50.8291 1.24998V15.6779L59.5374 22.856C59.6653 22.9597 59.7715 23.0877 59.8498 23.2327C59.9281 23.3776 59.9769 23.5366 59.9936 23.7005C60.0102 23.8643 59.9943 24.0299 59.9468 24.1876C59.8992 24.3453 59.821 24.4921 59.7165 24.6195V24.6195Z"
		fill="#EC363F" />
</svg>
