<svg width="21" height="23" viewBox="0 0 21 23" fill="none" xmlns="http://www.w3.org/2000/svg">
	<path
		d="M17.2197 0H2.86995C2.10879 0 1.37881 0.302369 0.840589 0.84059C0.302369 1.37881 0 2.1088 0 2.86996V21.5247C0 21.9052 0.151185 22.2702 0.420295 22.5393C0.689405 22.8085 1.0544 22.9596 1.43498 22.9596H18.6547C19.0353 22.9596 19.4003 22.8085 19.6694 22.5393C19.9385 22.2702 20.0897 21.9052 20.0897 21.5247V2.86996C20.0897 2.1088 19.7873 1.37881 19.2491 0.84059C18.7108 0.302369 17.9809 0 17.2197 0V0ZM17.9372 20.8072H2.15246V2.86996C2.15246 2.67967 2.22806 2.49717 2.36261 2.36261C2.49717 2.22806 2.67966 2.15247 2.86995 2.15247H17.2197C17.41 2.15247 17.5925 2.22806 17.727 2.36261C17.8616 2.49717 17.9372 2.67967 17.9372 2.86996V20.8072ZM5.7399 4.66368C5.7399 4.45082 5.67678 4.24274 5.55852 4.06575C5.44027 3.88877 5.27218 3.75082 5.07553 3.66937C4.87887 3.58791 4.66248 3.5666 4.45371 3.60812C4.24494 3.64965 4.05317 3.75215 3.90266 3.90267C3.75215 4.05318 3.64964 4.24495 3.60812 4.45371C3.56659 4.66248 3.5879 4.87888 3.66936 5.07553C3.75082 5.27219 3.88876 5.44027 4.06575 5.55853C4.24273 5.67679 4.45081 5.73991 4.66367 5.73991C4.9491 5.73991 5.22285 5.62652 5.42468 5.42469C5.62651 5.22286 5.7399 4.94911 5.7399 4.66368ZM8.25111 5.73991C8.46397 5.73991 8.67205 5.67679 8.84903 5.55853C9.02602 5.44027 9.16396 5.27219 9.24542 5.07553C9.32687 4.87888 9.34819 4.66248 9.30666 4.45371C9.26513 4.24495 9.16263 4.05318 9.01212 3.90267C8.86161 3.75215 8.66984 3.64965 8.46107 3.60812C8.2523 3.5666 8.03591 3.58791 7.83925 3.66937C7.6426 3.75082 7.47451 3.88877 7.35626 4.06575C7.238 4.24274 7.17488 4.45082 7.17488 4.66368C7.17488 4.94911 7.28827 5.22286 7.4901 5.42469C7.69193 5.62652 7.96567 5.73991 8.25111 5.73991ZM10.0448 7.17489C8.83863 7.17489 7.65952 7.53257 6.6566 8.2027C5.65369 8.87283 4.87201 9.8253 4.41041 10.9397C3.94882 12.0541 3.82805 13.2803 4.06337 14.4633C4.29868 15.6464 4.87952 16.733 5.73243 17.5859C6.58535 18.4389 7.67202 19.0197 8.85504 19.255C10.0381 19.4903 11.2643 19.3696 12.3787 18.908C13.4931 18.4464 14.4455 17.6647 15.1157 16.6618C15.7858 15.6589 16.1435 14.4797 16.1435 13.2735C16.1435 11.6561 15.5009 10.1049 14.3572 8.96114C13.2135 7.81742 11.6623 7.17489 10.0448 7.17489ZM10.0448 17.3395C8.96688 17.3382 7.93346 16.9094 7.17124 16.1471C6.40901 15.3849 5.98022 14.3515 5.97892 13.2735C5.97892 13.1439 6.00537 13.0215 6.01748 12.8951C6.29563 13.0313 6.60103 13.1028 6.91075 13.104C7.2039 13.1041 7.4941 13.0455 7.7642 12.9316C8.03431 12.8177 8.27886 12.6508 8.4834 12.4408C8.68576 12.6506 8.92832 12.8174 9.19659 12.9314C9.46486 13.0454 9.75335 13.1041 10.0448 13.1041C10.3363 13.1041 10.6248 13.0454 10.8931 12.9314C11.1613 12.8174 11.4039 12.6506 11.6063 12.4408C11.8108 12.6508 12.0553 12.8177 12.3255 12.9316C12.5956 13.0455 12.8858 13.1041 13.1789 13.104C13.4886 13.1028 13.794 13.0313 14.0722 12.8951C14.0843 13.0215 14.1107 13.1439 14.1107 13.2735C14.1094 14.3515 13.6806 15.3849 12.9184 16.1471C12.1562 16.9094 11.1228 17.3382 10.0448 17.3395Z"
		fill="white" />
</svg>
