<svg width="20" height="25" viewBox="0 0 20 25" fill="none" xmlns="http://www.w3.org/2000/svg">
	<path fill-rule="evenodd" clip-rule="evenodd"
		d="M14.9534 0.106425C13.9234 0.390513 12.8751 1.26736 12.4201 2.22524L12.1867 2.71683L11.4509 2.71481C10.152 2.71125 9.12681 3.1367 8.19909 4.06441C7.26661 4.99698 6.87375 5.96125 6.87375 7.31788C6.87375 7.83317 6.923 8.21956 7.03395 8.57457L7.19415 9.08719L3.59708 12.6861L0 16.2851V16.7902C0 17.0679 0.0274951 17.2953 0.0610552 17.2953C0.0946153 17.2953 1.63191 15.7851 3.47731 13.9392L6.83259 10.5832H7.23693H7.64135L4.04581 14.1794L0.450271 17.7756L0.690125 18.0261L0.929978 18.2766L1.81952 18.2215C2.62674 18.1716 2.72985 18.147 2.93356 17.9564C3.14195 17.7612 3.15449 17.7142 3.10855 17.2983C3.06092 16.8675 3.06949 16.8405 3.33353 16.5869L3.60799 16.3232L4.00675 16.4432L4.40543 16.5632L4.73771 16.2371C5.0666 15.9144 5.06919 15.9072 4.98743 15.55C4.90794 15.2026 4.91498 15.1785 5.17214 14.9131L5.4394 14.6374L5.84787 14.7984L6.25633 14.9594L6.72269 14.4897L7.18906 14.0201L7.02352 13.4228L6.85798 12.8255L7.14321 12.5403L7.42842 12.2551L8.06081 12.3449L8.69328 12.4348L9.17848 11.9691L9.66369 11.5034L10.0886 11.6493C12.5022 12.4779 15.2821 10.879 15.8865 8.31466C16.3648 6.28545 15.3434 4.11487 13.4761 3.19226C13.1361 3.02421 12.858 2.84097 12.858 2.78501C12.858 2.60572 13.4657 1.73745 13.79 1.45352C13.9625 1.30238 14.342 1.06584 14.6333 0.927879C15.1214 0.696517 15.2293 0.676947 16.016 0.676947C16.8396 0.676947 16.8907 0.68754 17.4855 0.981494C19.6418 2.04717 20.0115 4.78575 18.2247 6.45721L17.6901 6.95737L17.1946 6.46538C16.654 5.92841 16.3484 5.69115 16.2824 5.75706C16.2591 5.78043 16.2845 5.99828 16.3388 6.24121C16.4 6.51446 16.4228 7.01786 16.3986 7.56154C16.3658 8.29937 16.3186 8.544 16.1046 9.08719C15.5019 10.6166 14.2271 11.7463 12.6441 12.1536C12.1064 12.292 10.9014 12.3209 10.4117 12.2071C10.245 12.1684 10.1085 12.1608 10.1085 12.1902C10.1085 12.3221 10.8664 13.0912 11.271 13.3699C11.6585 13.6367 11.7121 13.7054 11.6766 13.8892C11.6542 14.0056 11.3689 16.265 11.0427 18.9099L10.4496 23.7187L10.7845 24.1481L11.1193 24.5776L11.1771 24.3126C11.2089 24.1669 11.4776 22.0462 11.7743 19.6L12.3135 15.1523L12.6262 14.83C12.8418 14.6077 12.9388 14.5493 12.9388 14.6418C12.9388 14.7157 12.665 16.9868 12.3303 19.6889C11.8483 23.5803 11.7433 24.6154 11.8249 24.6672C12.1097 24.8479 12.3973 24.7318 13.0617 24.1677C13.6062 23.7055 13.7401 23.546 13.7849 23.3073C13.8351 23.0403 13.8103 22.9841 13.5066 22.6747C13.1809 22.3428 13.1748 22.3264 13.238 21.9492C13.3006 21.5761 13.3166 21.558 13.7172 21.4086L14.1316 21.254L14.1777 20.8314C14.222 20.4245 14.2126 20.3981 13.925 20.1256C13.648 19.8632 13.6291 19.8161 13.6666 19.4789C13.7067 19.119 13.7114 19.114 14.1276 18.9959C14.5886 18.8651 14.547 18.9448 14.6827 17.9339L14.7327 17.5616L14.2165 17.1826L13.7004 16.8036L13.7441 16.4233C13.787 16.0514 13.8005 16.0356 14.3659 15.6975L14.9439 15.3518L15.001 14.7062C15.0401 14.2652 15.091 14.0606 15.1617 14.0606C15.2187 14.0606 15.5697 13.9091 15.9418 13.724C17.6675 12.8653 18.6913 10.9938 18.4581 9.12414C18.4107 8.74415 18.2836 8.21608 18.1757 7.95067L17.9796 7.46805L18.4166 7.15825C18.6568 6.98786 19.0124 6.63253 19.2066 6.36866C20.8774 4.09919 19.789 0.917609 17.0686 0.118555C16.5482 -0.0342845 15.4855 -0.0404305 14.9534 0.106425ZM13.4077 4.9728C13.831 5.24662 14.0055 5.79466 13.8214 6.27178L13.7336 6.49942L13.4893 6.21638C13.2357 5.92251 12.7773 5.04493 12.7772 4.85312C12.7771 4.72154 13.12 4.78664 13.4077 4.9728ZM12.3364 5.54583C12.4486 5.79975 12.6847 6.19843 12.861 6.4319C13.0372 6.66536 13.1814 6.8761 13.1814 6.90028C13.1814 6.99611 12.5834 6.93659 12.3279 6.81537C11.9786 6.64959 11.6845 6.07947 11.7582 5.71096C11.8072 5.46593 12.0109 5.08424 12.0926 5.08424C12.1144 5.08424 12.224 5.29199 12.3364 5.54583Z"
		fill="white" />
</svg>
