<svg width="20" height="20" viewBox="0 0 20 20" fill="none" xmlns="http://www.w3.org/2000/svg">
	<g clip-path="url(#clip0_205_4002)">
		<path
			d="M18.6847 4.29991L10.8222 0.206548C10.5618 0.0702124 10.2823 0 10 0C9.71773 0 9.43824 0.0702124 9.17785 0.206548L1.31532 4.29991C0.925207 4.50143 0.591848 4.84343 0.357635 5.2824C0.123422 5.72138 -0.00106375 6.2375 6.84787e-06 6.76514V19.3749C6.84787e-06 19.5407 0.0526854 19.6996 0.146454 19.8168C0.240222 19.9341 0.3674 19.9999 0.500008 19.9999H1.00001C1.13262 19.9999 1.2598 19.9341 1.35356 19.8168C1.44733 19.6996 1.50001 19.5407 1.50001 19.3749V6.76514C1.49919 6.60802 1.53594 6.45417 1.60553 6.32333C1.67513 6.19248 1.77441 6.09061 1.89064 6.03077L9.75597 1.93663C9.83383 1.8962 9.9173 1.8754 10.0016 1.8754C10.0859 1.8754 10.1694 1.8962 10.2472 1.93663L18.1094 6.03077C18.2252 6.09148 18.324 6.19356 18.3935 6.32421C18.463 6.45486 18.5001 6.60825 18.5001 6.76514V19.3749C18.5001 19.5407 18.5527 19.6996 18.6465 19.8168C18.7403 19.9341 18.8675 19.9999 19.0001 19.9999H19.5001C19.6327 19.9999 19.7599 19.9341 19.8536 19.8168C19.9474 19.6996 20.0001 19.5407 20.0001 19.3749V6.76514C20.0011 6.2375 19.8767 5.72138 19.6424 5.2824C19.4082 4.84343 19.0749 4.50143 18.6847 4.29991ZM15.7501 7.49991H4.25002C3.9185 7.49991 3.60055 7.66453 3.36613 7.95755C3.13171 8.25058 3.00002 8.64801 3.00002 9.06241V19.3749C3.00002 19.5407 3.05269 19.6996 3.14646 19.8168C3.24023 19.9341 3.36741 19.9999 3.50002 19.9999H4.00002C4.13263 19.9999 4.2598 19.9341 4.35357 19.8168C4.44734 19.6996 4.50002 19.5407 4.50002 19.3749V12.4999H15.5001V19.3749C15.5001 19.5407 15.5527 19.6996 15.6465 19.8168C15.7403 19.9341 15.8674 19.9999 16.0001 19.9999H16.5001C16.6327 19.9999 16.7598 19.9341 16.8536 19.8168C16.9474 19.6996 17.0001 19.5407 17.0001 19.3749V9.06241C17.0001 8.64801 16.8684 8.25058 16.6339 7.95755C16.3995 7.66453 16.0816 7.49991 15.7501 7.49991ZM15.5001 9.37491V11.2499H4.50002V9.37491H15.5001ZM13.4435 14.4679L13.3 13.7499H11.7538L11.8788 14.3749H8.08784L8.21284 13.7499H6.66659L6.52034 14.4819C6.22363 14.6061 5.96557 14.8434 5.78252 15.1606C5.59947 15.4778 5.50066 15.8588 5.50002 16.2499V17.1874C5.50066 17.3799 5.54911 17.5674 5.63868 17.724C5.72824 17.8806 5.85451 17.9986 6.00002 18.0616V19.3749C6.00002 19.5407 6.0527 19.6996 6.14647 19.8168C6.24024 19.9341 6.36742 19.9999 6.50003 19.9999H7.50003C7.63264 19.9999 7.75981 19.9341 7.85358 19.8168C7.94735 19.6996 8.00003 19.5407 8.00003 19.3749V18.1249H12V19.3749C12 19.5407 12.0527 19.6996 12.1465 19.8168C12.2403 19.9341 12.3674 19.9999 12.5 19.9999H13.5C13.6327 19.9999 13.7598 19.9341 13.8536 19.8168C13.9474 19.6996 14 19.5407 14 19.3749V18.0616C14.1456 17.9986 14.2718 17.8806 14.3614 17.724C14.451 17.5674 14.4994 17.3799 14.5 17.1874V16.2499C14.4993 15.8508 14.3963 15.4624 14.2062 15.1417C14.0161 14.821 13.7488 14.5849 13.4435 14.4679ZM7.25003 17.053C6.95003 17.053 6.75003 16.7937 6.75003 16.4042C6.75003 16.0148 6.95003 15.755 7.25003 15.755C7.55003 15.755 8.00003 16.339 8.00003 16.7284C8.00003 17.1179 7.55003 17.053 7.25003 17.053ZM12.75 17.053C12.45 17.053 12 17.1179 12 16.7284C12 16.339 12.45 15.755 12.75 15.755C13.05 15.755 13.25 16.0155 13.25 16.4062C13.25 16.7968 13.05 17.053 12.75 17.053Z"
			fill="white" />
	</g>
	<defs>
		<clipPath id="clip0_205_4002">
			<rect width="20" height="20" fill="white" />
		</clipPath>
	</defs>
</svg>
