<svg width="50" height="41" viewBox="0 0 50 41" xmlns="http://www.w3.org/2000/svg">
	<rect width="50" height="40.71" rx="4.5" />
	<rect x="30" y="25" width="14" height="2.97878" rx="0.7" fill="white" />
	<rect x="30" y="11" width="14" height="3" rx="0.7" fill="white" />
	<rect x="30" y="18" width="14" height="2.97878" rx="0.7" fill="white" />
	<path
		d="M15 20C18.1562 20 20.7143 17.5379 20.7143 14.5C20.7143 11.4621 18.1562 9 15 9C11.8438 9 9.28571 11.4621 9.28571 14.5C9.28571 17.5379 11.8438 20 15 20ZM19 21.375H18.2545C17.2634 21.8133 16.1607 22.0625 15 22.0625C13.8393 22.0625 12.7411 21.8133 11.7455 21.375H11C7.6875 21.375 5 23.9617 5 27.15V28.9375C5 30.0762 5.95982 31 7.14286 31H22.8571C24.0402 31 25 30.0762 25 28.9375V27.15C25 23.9617 22.3125 21.375 19 21.375Z"
		fill="white" />
</svg>
