<svg width="60" height="69" viewBox="0 0 60 69" fill="none" xmlns="http://www.w3.org/2000/svg">
	<path
		d="M25.7143 14.3304V19.6875C25.7143 20.575 24.9947 21.2946 24.1071 21.2946H18.75C17.8625 21.2946 17.1429 20.575 17.1429 19.6875V14.3304C17.1429 13.4428 17.8625 12.7232 18.75 12.7232H24.1071C24.9947 12.7232 25.7143 13.4428 25.7143 14.3304ZM41.25 12.7232H35.8929C35.0053 12.7232 34.2857 13.4428 34.2857 14.3304V19.6875C34.2857 20.575 35.0053 21.2946 35.8929 21.2946H41.25C42.1375 21.2946 42.8571 20.575 42.8571 19.6875V14.3304C42.8571 13.4428 42.1375 12.7232 41.25 12.7232ZM24.1071 25.5804H18.75C17.8625 25.5804 17.1429 26.3 17.1429 27.1875V32.5446C17.1429 33.4322 17.8625 34.1518 18.75 34.1518H24.1071C24.9947 34.1518 25.7143 33.4322 25.7143 32.5446V27.1875C25.7143 26.3 24.9947 25.5804 24.1071 25.5804ZM41.25 25.5804H35.8929C35.0053 25.5804 34.2857 26.3 34.2857 27.1875V32.5446C34.2857 33.4322 35.0053 34.1518 35.8929 34.1518H41.25C42.1375 34.1518 42.8571 33.4322 42.8571 32.5446V27.1875C42.8571 26.3 42.1375 25.5804 41.25 25.5804ZM24.1071 38.4375H18.75C17.8625 38.4375 17.1429 39.1571 17.1429 40.0446V45.4018C17.1429 46.2893 17.8625 47.0089 18.75 47.0089H24.1071C24.9947 47.0089 25.7143 46.2893 25.7143 45.4018V40.0446C25.7143 39.1571 24.9947 38.4375 24.1071 38.4375ZM41.25 38.4375H35.8929C35.0053 38.4375 34.2857 39.1571 34.2857 40.0446V45.4018C34.2857 46.2893 35.0053 47.0089 35.8929 47.0089H41.25C42.1375 47.0089 42.8571 46.2893 42.8571 45.4018V40.0446C42.8571 39.1571 42.1375 38.4375 41.25 38.4375ZM60 65.8929V68.5714H0V65.8929C0 65.0053 0.719598 64.2857 1.60714 64.2857H4.28571V3.21429C4.28571 1.43906 5.72478 0 7.5 0H52.5C54.2752 0 55.7143 1.43906 55.7143 3.21429V64.2857H58.3929C59.2804 64.2857 60 65.0053 60 65.8929ZM51.4286 64.2857V4.28571H8.57143V64.2857H25.7143V52.9018C25.7143 52.0142 26.4339 51.2946 27.3214 51.2946H32.6786C33.5661 51.2946 34.2857 52.0142 34.2857 52.9018V64.2857H51.4286Z"
		fill="#F50F0F" />
</svg>
