<svg width="60" height="54" viewBox="0 0 60 54" fill="none" xmlns="http://www.w3.org/2000/svg">
	<path
		d="M41.3333 23.3333H45.3333C46 23.3333 46.6667 22.6667 46.6667 22V18C46.6667 17.3333 46 16.6667 45.3333 16.6667H41.3333C40.6667 16.6667 40 17.3333 40 18V22C40 22.6667 40.6667 23.3333 41.3333 23.3333ZM28 13.3333H32C32.6667 13.3333 33.3333 12.6667 33.3333 12V8C33.3333 7.33333 32.6667 6.66667 32 6.66667H28C27.3333 6.66667 26.6667 7.33333 26.6667 8V12C26.6667 12.6667 27.3333 13.3333 28 13.3333V13.3333ZM41.3333 13.3333H45.3333C46 13.3333 46.6667 12.6667 46.6667 12V8C46.6667 7.33333 46 6.66667 45.3333 6.66667H41.3333C40.6667 6.66667 40 7.33333 40 8V12C40 12.6667 40.6667 13.3333 41.3333 13.3333V13.3333ZM14.6667 13.3333H18.6667C19.3333 13.3333 20 12.6667 20 12V8C20 7.33333 19.3333 6.66667 18.6667 6.66667H14.6667C14 6.66667 13.3333 7.33333 13.3333 8V12C13.3333 12.6667 14 13.3333 14.6667 13.3333V13.3333ZM28 23.3333H32C32.6667 23.3333 33.3333 22.6667 33.3333 22V18C33.3333 17.3333 32.6667 16.6667 32 16.6667H28C27.3333 16.6667 26.6667 17.3333 26.6667 18V22C26.6667 22.6667 27.3333 23.3333 28 23.3333ZM59.1667 3.33333C59.6271 3.33333 60 2.96042 60 2.5V0.833333C60 0.372917 59.6271 0 59.1667 0H0.833333C0.372917 0 0 0.372917 0 0.833333V2.5C0 2.96042 0.372917 3.33333 0.833333 3.33333H3.33125V50H0.833333C0.372917 50 0 50.3729 0 50.8333V52.5C0 52.9604 0.372917 53.3333 0.833333 53.3333H59.1667C59.6271 53.3333 60 52.9604 60 52.5V50.8333C60 50.3729 59.6271 50 59.1667 50H56.6667V3.33333H59.1667ZM33.3333 50H26.6667V41.6667C26.6667 40.7458 27.4125 40 28.3333 40H31.6667C32.5875 40 33.3333 40.7458 33.3333 41.6667V50ZM53.3333 50H36.6667V41.6667C36.6667 38.9094 34.424 36.6667 31.6667 36.6667H28.3333C25.576 36.6667 23.3333 38.9094 23.3333 41.6667V50H6.66458V3.33333H53.3333V50ZM14.6667 23.3333H18.6667C19.3333 23.3333 20 22.6667 20 22V18C20 17.3333 19.3333 16.6667 18.6667 16.6667H14.6667C14 16.6667 13.3333 17.3333 13.3333 18V22C13.3333 22.6667 14 23.3333 14.6667 23.3333ZM17.4073 39.7562L19.1 39.9917C19.5479 40.0542 19.9448 39.7583 20.0448 39.3292C21.0823 34.8677 25.226 31.5917 30.001 31.5917C34.776 31.5917 38.9187 34.8677 39.9573 39.3292C40.0573 39.7583 40.4542 40.0542 40.9021 39.9917L42.5948 39.7562C43.074 39.6896 43.4177 39.2437 43.3177 38.7833C42.0021 32.7385 36.4292 28.2812 30 28.2812C23.5708 28.2812 17.9979 32.7385 16.6844 38.7823C16.5844 39.2437 16.9281 39.6896 17.4073 39.7562V39.7562Z"
		fill="#EC363F" />
</svg>
