<svg width="20" height="18" viewBox="0 0 20 18" fill="none" xmlns="http://www.w3.org/2000/svg">
	<path
		d="M15.1882 10.7465C15.104 10.717 15.014 10.7081 14.9256 10.7206C14.8373 10.733 14.7532 10.7664 14.6804 10.8179C14.6076 10.8695 14.5482 10.9377 14.5071 11.017C14.4661 11.0962 14.4446 11.1841 14.4444 11.2733V11.8851C14.4444 12.1066 14.5809 12.2965 14.7799 12.3931C15.2979 12.6448 15.6382 13.1938 15.5382 13.833C15.4306 14.5181 14.7986 15 14.1049 15H13.8889C13.5205 15 13.1673 14.8537 12.9068 14.5932C12.6463 14.3327 12.5 13.9795 12.5 13.6111V10H10.8333V13.6111C10.8333 14.4215 11.1553 15.1987 11.7283 15.7717C12.3013 16.3447 13.0785 16.6667 13.8889 16.6667H14.0462C15.6059 16.6667 17.0049 15.5493 17.1979 14.0014C17.2863 13.3107 17.135 12.6107 16.7692 12.0182C16.4034 11.4258 15.8453 10.9769 15.1882 10.7465ZM7.5 14.7222C7.5 15.0906 7.35367 15.4438 7.0932 15.7043C6.83274 15.9648 6.47947 16.1111 6.11111 16.1111H5.89514C5.20069 16.1111 4.56944 15.6292 4.46181 14.9441C4.36181 14.3049 4.70208 13.7559 5.22014 13.5042C5.4191 13.4076 5.55556 13.2177 5.55556 12.9962V12.3844C5.55541 12.2952 5.53392 12.2073 5.49288 12.1281C5.45183 12.0489 5.39243 11.9806 5.31962 11.9291C5.24682 11.8775 5.16273 11.8441 5.07439 11.8317C4.98604 11.8193 4.89601 11.8282 4.81181 11.8576C4.15472 12.088 3.59662 12.5369 3.23081 13.1293C2.865 13.7218 2.71366 14.4219 2.80208 15.1125C2.99514 16.6604 4.3941 17.7778 5.95382 17.7778H6.11111C6.92149 17.7778 7.69869 17.4559 8.27172 16.8828C8.84474 16.3098 9.16667 15.5326 9.16667 14.7222V10H7.5V14.7222ZM18.8889 0H1.11111C0.816426 0 0.533811 0.117063 0.325437 0.325437C0.117063 0.533811 0 0.816426 0 1.11111L0 7.77778C0 8.07246 0.117063 8.35508 0.325437 8.56345C0.533811 8.77183 0.816426 8.88889 1.11111 8.88889H18.8889C19.1836 8.88889 19.4662 8.77183 19.6746 8.56345C19.8829 8.35508 20 8.07246 20 7.77778V1.11111C20 0.816426 19.8829 0.533811 19.6746 0.325437C19.4662 0.117063 19.1836 0 18.8889 0V0ZM18.3333 7.22222H1.66667V1.66667H18.3333V7.22222ZM3.88889 6.11111H16.1111C16.2585 6.11111 16.3998 6.05258 16.504 5.94839C16.6081 5.84421 16.6667 5.7029 16.6667 5.55556V5C16.6667 4.85266 16.6081 4.71135 16.504 4.60716C16.3998 4.50298 16.2585 4.44444 16.1111 4.44444H3.88889C3.74155 4.44444 3.60024 4.50298 3.49605 4.60716C3.39187 4.71135 3.33333 4.85266 3.33333 5V5.55556C3.33333 5.7029 3.39187 5.84421 3.49605 5.94839C3.60024 6.05258 3.74155 6.11111 3.88889 6.11111Z"
		fill="white" />
</svg>
