<svg width="25" height="25" viewBox="0 0 25 25" fill="none" xmlns="http://www.w3.org/2000/svg">
	<path fill-rule="evenodd" clip-rule="evenodd"
		d="M7.91011 0.398427C7.50553 0.803009 7.4928 1.09387 7.4928 9.99656V19.1774H5.23933C3.76476 19.1774 2.89926 19.264 2.73547 19.4278C2.59775 19.5655 2.48508 20.0429 2.48508 20.4884C2.48508 20.934 2.29187 22.0554 2.05567 22.9803C1.81321 23.9299 1.70513 24.7405 1.80737 24.8428C1.9069 24.9423 6.4898 24.9995 11.9914 24.9696C21.8239 24.9162 21.9949 24.9083 22.0296 24.4981C22.049 24.2686 22.1761 22.7193 22.3121 21.0553C22.4886 18.893 22.672 17.8046 22.955 17.2409C23.2563 16.6399 23.3506 16.001 23.3506 14.5598C23.3506 12.751 23.3245 12.6436 22.7588 12.1146C22.3507 11.7332 22.1295 11.2798 22.0457 10.6536C21.7339 8.32586 19.5748 6.54248 17.2635 6.70398C14.6929 6.88363 12.9178 8.87295 12.9178 11.5738V12.8948L11.9267 12.9584L10.9356 13.0221L10.8703 13.9314C10.8344 14.4315 10.9408 15.1357 11.1067 15.4963C11.2728 15.8568 11.4721 16.8325 11.5499 17.6646L11.6911 19.1774H10.844H9.99666V9.99656C9.99666 1.09387 9.98393 0.803009 9.57935 0.398427C9.04812 -0.132809 8.44135 -0.132809 7.91011 0.398427ZM9.11217 10.066C9.1658 19.0722 9.16162 19.1774 8.74703 19.1774C8.33305 19.1774 8.32742 19.0541 8.32742 10.1357C8.32742 5.16265 8.3919 1.0294 8.47098 0.950528C8.99574 0.425552 9.06001 1.338 9.11217 10.066ZM21.8472 5.63567L20.8655 6.65703L21.8994 7.69092L22.9333 8.7248L23.9665 7.69134L25 6.65808L23.9567 5.6148C23.3829 5.041 22.8945 4.58113 22.8711 4.59302C22.8479 4.6047 22.3872 5.07397 21.8472 5.63567ZM23.3593 6.35553C23.5809 6.62281 23.5674 6.73945 23.2805 7.02614C22.9566 7.35019 22.9099 7.35019 22.5861 7.02614C22.2992 6.73945 22.2856 6.62281 22.5072 6.35553C22.6549 6.17775 22.8467 6.03211 22.9333 6.03211C23.0199 6.03211 23.2116 6.17775 23.3593 6.35553ZM18.9158 7.81361C19.3381 7.99013 19.8648 8.29539 20.0862 8.49174C20.6176 8.96392 21.2538 10.3732 21.2594 11.092L21.264 11.6658H19.0525C16.8643 11.6658 16.8349 11.6725 16.2563 12.2918C15.7706 12.8117 15.5091 12.9177 14.7121 12.9177H13.7525V11.7634C13.7525 9.82525 14.4648 8.56393 15.9433 7.88518C16.9682 7.41445 17.9066 7.39192 18.9158 7.81361ZM3.48558 10.6434L2.50386 11.6648L3.53775 12.6986L4.57163 13.7325L5.60489 12.6991L6.63836 11.6658L5.59508 10.6225C5.02128 10.0487 4.53282 9.58885 4.50945 9.60074C4.48629 9.61242 4.02558 10.0817 3.48558 10.6434ZM4.9977 11.3632C5.2193 11.6305 5.20573 11.7472 4.91883 12.0339C4.595 12.3579 4.54826 12.3579 4.22443 12.0339C3.93753 11.7472 3.92397 11.6305 4.14556 11.3632C4.29329 11.1855 4.48504 11.0398 4.57163 11.0398C4.65822 11.0398 4.84998 11.1855 4.9977 11.3632ZM22.2906 12.7932C22.4446 12.9789 22.5112 13.7229 22.4726 14.8275C22.4242 16.2095 22.347 16.5692 22.0987 16.5692C21.8733 16.5692 21.7679 16.2917 21.722 15.5781C21.6701 14.7677 21.5866 14.587 21.264 14.587C20.9415 14.587 20.858 14.7677 20.806 15.5781C20.7601 16.2917 20.6548 16.5692 20.4294 16.5692C20.2041 16.5692 20.0987 16.2917 20.0528 15.5781C20.0008 14.7677 19.9174 14.587 19.5948 14.587C19.2722 14.587 19.1887 14.7677 19.1368 15.5781C19.0909 16.2917 18.9855 16.5692 18.7602 16.5692C18.5348 16.5692 18.4295 16.2917 18.3835 15.5781C18.3316 14.7677 18.2481 14.587 17.9256 14.587C17.603 14.587 17.5195 14.7677 17.4676 15.5781C17.4216 16.2917 17.3163 16.5692 17.0909 16.5692C16.8426 16.5692 16.7654 16.2095 16.717 14.8275C16.6784 13.7229 16.745 12.9789 16.899 12.7932C17.2483 12.3725 21.9413 12.3725 22.2906 12.7932ZM15.839 14.1697C15.839 14.5592 15.6998 14.587 13.7525 14.587C11.8051 14.587 11.6659 14.5592 11.6659 14.1697C11.6659 13.7801 11.8051 13.7523 13.7525 13.7523C15.6998 13.7523 15.839 13.7801 15.839 14.1697ZM0.981722 15.6511L0 16.6725L1.03389 17.7064L2.06777 18.7402L3.10103 17.7068L4.1345 16.6735L3.09122 15.6302C2.51742 15.0564 2.02896 14.5966 2.00559 14.6085C1.98243 14.6201 1.52172 15.0894 0.981722 15.6511ZM15.839 16.0476C15.839 17.2692 16.3126 17.4629 19.1556 17.4042C20.549 17.3754 21.7218 17.4105 21.7619 17.4823C21.8145 17.5762 21.3821 22.0092 21.2761 22.4637C21.2695 22.4925 19.9142 22.5159 18.2646 22.5159H15.2652L15.1348 21.8638C15.063 21.5051 15.0044 20.8666 15.0044 20.445C15.0044 19.4342 14.7041 19.1774 13.5225 19.1774H12.5414L12.4058 17.8733C12.3311 17.1561 12.2205 16.3111 12.16 15.9954L12.05 15.4216H13.9446H15.839V16.0476ZM2.49384 16.371C2.71544 16.6383 2.70187 16.7549 2.41497 17.0416C2.09114 17.3656 2.0444 17.3656 1.72057 17.0416C1.43367 16.7549 1.42011 16.6383 1.6417 16.371C1.78943 16.1932 1.98118 16.0476 2.06777 16.0476C2.15436 16.0476 2.34612 16.1932 2.49384 16.371ZM19.5948 18.3428C19.5948 18.6209 19.734 18.7601 20.0121 18.7601C20.2902 18.7601 20.4294 18.6209 20.4294 18.3428C20.4294 18.0646 20.2902 17.9254 20.0121 17.9254C19.734 17.9254 19.5948 18.0646 19.5948 18.3428ZM19.5948 20.638C19.5948 21.5421 19.6505 21.6812 20.0121 21.6812C20.3737 21.6812 20.4294 21.5421 20.4294 20.638C20.4294 19.7339 20.3737 19.5947 20.0121 19.5947C19.6505 19.5947 19.5948 19.7339 19.5948 20.638ZM14.1698 20.4293C14.1698 20.836 14.0306 20.8466 8.74473 20.8466C3.45887 20.8466 3.3197 20.836 3.3197 20.4293C3.3197 20.0226 3.45887 20.012 8.74473 20.012C14.0306 20.012 14.1698 20.0226 14.1698 20.4293ZM3.94567 21.874C3.94567 21.98 3.8357 22.5434 3.70112 23.126C3.51709 23.9237 3.36248 24.1851 3.07516 24.1851C2.62551 24.1851 2.61946 24.1217 2.93828 22.7404C3.12231 21.9427 3.27693 21.6812 3.56424 21.6812C3.77394 21.6812 3.94567 21.768 3.94567 21.874ZM5.61491 21.874C5.61491 21.98 5.50494 22.5434 5.37036 23.126C5.18633 23.9237 5.03171 24.1851 4.7444 24.1851C4.29475 24.1851 4.28869 24.1217 4.60752 22.7404C4.79155 21.9427 4.94617 21.6812 5.23348 21.6812C5.44318 21.6812 5.61491 21.768 5.61491 21.874ZM7.36177 22.4637C7.14727 24.067 7.09156 24.1851 6.54989 24.1851C5.9546 24.1851 5.94938 24.158 6.27676 22.7404C6.48208 21.8509 6.59684 21.6812 6.99391 21.6812C7.41956 21.6812 7.45608 21.7591 7.36177 22.4637ZM9.24884 22.1507C9.30101 22.4088 9.39073 22.9724 9.44832 23.4026L9.55306 24.1851H8.74473H7.9364L8.04115 23.4026C8.245 21.8786 8.32575 21.6812 8.74473 21.6812C9.002 21.6812 9.18937 21.8557 9.24884 22.1507ZM11.2127 22.7404C11.5401 24.158 11.5349 24.1851 10.9396 24.1851C10.3979 24.1851 10.3422 24.067 10.1277 22.4637C10.0334 21.7591 10.0699 21.6812 10.4956 21.6812C10.8926 21.6812 11.0074 21.8509 11.2127 22.7404ZM12.8819 22.7404C13.2008 24.1217 13.1947 24.1851 12.7451 24.1851C12.4577 24.1851 12.3031 23.9237 12.1191 23.126C11.8003 21.7447 11.8063 21.6812 12.256 21.6812C12.5433 21.6812 12.6979 21.9427 12.8819 22.7404ZM14.5512 22.7404C14.87 24.1217 14.864 24.1851 14.4143 24.1851C14.127 24.1851 13.9724 23.9237 13.7883 23.126C13.4695 21.7447 13.4756 21.6812 13.9252 21.6812C14.2125 21.6812 14.3672 21.9427 14.5512 22.7404ZM21.264 23.7678C21.264 24.1644 21.1249 24.1851 18.4472 24.1851C15.7695 24.1851 15.6303 24.1644 15.6303 23.7678C15.6303 23.3711 15.7695 23.3505 18.4472 23.3505C21.1249 23.3505 21.264 23.3711 21.264 23.7678Z"
		fill="white" />
</svg>
