<svg width="20" height="14" viewBox="0 0 20 14" fill="none" xmlns="http://www.w3.org/2000/svg">
	<path fill-rule="evenodd" clip-rule="evenodd"
		d="M9.96952 2.23616C7.04734 2.23616 4.24856 3.24597 2.20605 5.03724C1.6978 5.45404 0.895518 5.45033 0.392537 5.02886C-0.110445 4.60738 -0.13293 3.91997 0.34171 3.475C2.87424 1.25282 6.3453 0 9.96952 0C13.5937 0 17.0648 1.25282 19.5973 3.475C19.9415 3.75729 20.0788 4.17798 19.9555 4.57239C19.8321 4.96679 19.4676 5.27217 19.0048 5.36897C18.542 5.46577 18.0544 5.3386 17.733 5.03724C15.6905 3.24597 12.8917 2.23616 9.96952 2.23616ZM15.187 8.72043C15.7003 8.7214 16.1663 8.46398 16.3773 8.06297C16.5883 7.66197 16.505 7.19215 16.1644 6.86304C14.5966 5.33898 12.3403 4.46585 9.96966 4.46585C7.59905 4.46585 5.34275 5.33898 3.77488 6.86304C3.45746 7.16126 3.35225 7.583 3.49963 7.96641C3.64701 8.34982 4.02408 8.63536 4.48615 8.71345C4.94822 8.79154 5.42352 8.65005 5.72966 8.34329C6.80265 7.29995 8.34702 6.70221 9.96966 6.70221C11.5923 6.70221 13.1367 7.29995 14.2096 8.34329C14.4567 8.58403 14.813 8.72153 15.187 8.72043ZM12.5782 11.553C12.5782 12.788 11.4103 13.7891 9.96952 13.7891C8.52878 13.7891 7.36083 12.788 7.36083 11.553C7.36083 10.3181 8.52878 9.31703 9.96952 9.31703C11.4103 9.31703 12.5782 10.3181 12.5782 11.553Z"
		fill="white" />
</svg>
