<svg width="60" height="54" viewBox="0 0 60 54" fill="none" xmlns="http://www.w3.org/2000/svg">
	<path
		d="M58.3333 6.66667C59.2542 6.66667 60 5.92083 60 5V1.66667C60 0.745833 59.2542 0 58.3333 0H1.66667C0.745833 0 0 0.745833 0 1.66667V5C0 5.92083 0.745833 6.66667 1.66667 6.66667H3.33125V46.6667H1.66667C0.745833 46.6667 0 47.4125 0 48.3333V51.6667C0 52.5875 0.745833 53.3333 1.66667 53.3333H26.6667V45C26.6667 44.0833 27.4167 43.3333 28.3333 43.3333H31.6667C32.5833 43.3333 33.3333 44.0833 33.3333 45V53.3333H58.3333C59.2542 53.3333 60 52.5875 60 51.6667V48.3333C60 47.4125 59.2542 46.6667 58.3333 46.6667H56.6667V6.66667H58.3333ZM26.6667 11.3333C26.6667 10.6667 27.3333 10 28 10H32C32.6667 10 33.3333 10.6667 33.3333 11.3333V15.3333C33.3333 16 32.6667 16.6667 32 16.6667H28C27.3333 16.6667 26.6667 16 26.6667 15.3333V11.3333V11.3333ZM26.6667 21.3333C26.6667 20.6667 27.3333 20 28 20H32C32.6667 20 33.3333 20.6667 33.3333 21.3333V25.3333C33.3333 26 32.6667 26.6667 32 26.6667H28C27.3333 26.6667 26.6667 26 26.6667 25.3333V21.3333V21.3333ZM13.3333 11.3333C13.3333 10.6667 14 10 14.6667 10H18.6667C19.3333 10 20 10.6667 20 11.3333V15.3333C20 16 19.3333 16.6667 18.6667 16.6667H14.6667C14 16.6667 13.3333 16 13.3333 15.3333V11.3333ZM18.6667 26.6667H14.6667C14 26.6667 13.3333 26 13.3333 25.3333V21.3333C13.3333 20.6667 14 20 14.6667 20H18.6667C19.3333 20 20 20.6667 20 21.3333V25.3333C20 26 19.3333 26.6667 18.6667 26.6667ZM20 40C20 34.4771 24.4771 30 30 30C35.5229 30 40 34.4771 40 40H20ZM46.6667 25.3333C46.6667 26 46 26.6667 45.3333 26.6667H41.3333C40.6667 26.6667 40 26 40 25.3333V21.3333C40 20.6667 40.6667 20 41.3333 20H45.3333C46 20 46.6667 20.6667 46.6667 21.3333V25.3333ZM46.6667 15.3333C46.6667 16 46 16.6667 45.3333 16.6667H41.3333C40.6667 16.6667 40 16 40 15.3333V11.3333C40 10.6667 40.6667 10 41.3333 10H45.3333C46 10 46.6667 10.6667 46.6667 11.3333V15.3333Z"
		fill="#EC363F" />
</svg>
