<svg width="16" height="17" viewBox="0 0 16 17" xmlns="http://www.w3.org/2000/svg">
	<path
		d="M2.40077 0.0264129C2.21728 0.0930576 2.07775 0.232219 2.01676 0.409368C2.00267 0.450337 1.99113 0.600671 1.99113 0.743469V1.0031L1.56939 1.00347C1.28393 1.00374 1.0981 1.01428 0.994303 1.03605C0.583546 1.12231 0.226661 1.43075 0.0818701 1.82466C0.0349646 1.95228 0.0331024 1.99215 0.0179638 3.19392C0.00937583 3.87472 0.00162045 6.80275 0.000700304 9.70066C-0.00109617 15.4257 -0.00826021 15.086 0.119465 15.347C0.19071 15.4927 0.426596 15.7492 0.579646 15.8476C0.64077 15.8868 0.764004 15.942 0.853499 15.9701L1.01621 16.0212H5.21163C9.40035 16.0212 9.40719 16.0211 9.48343 15.9763C9.52545 15.9516 9.58846 15.8907 9.62349 15.8408C9.76387 15.6411 9.66529 15.3326 9.43302 15.2448C9.39025 15.2287 8.12231 15.2215 5.29659 15.2215C2.28069 15.2215 1.19564 15.2149 1.12102 15.1961C0.986898 15.1624 0.867235 15.0427 0.833475 14.9086C0.81459 14.8336 0.808083 13.502 0.808083 9.71286V4.61796H7.33673H13.8654V6.3911C13.8654 7.58816 13.8729 8.18426 13.8886 8.22591C13.9202 8.30956 14.0362 8.4286 14.1221 8.46545C14.282 8.53405 14.4913 8.47496 14.6018 8.33002L14.665 8.24718L14.6707 5.1608C14.677 1.75256 14.6835 1.92566 14.5387 1.65165C14.4427 1.46999 14.1991 1.23018 14.0187 1.13972C13.7978 1.02895 13.6136 1.00017 13.1741 1.00764L12.7958 1.01406L12.7878 0.718296C12.7816 0.484733 12.7715 0.406411 12.7397 0.345856C12.6838 0.239536 12.5566 0.11019 12.4523 0.0537105C12.3671 0.00757185 12.3431 0.00627925 11.576 0.00627925C10.805 0.00627925 10.7852 0.00737465 10.6971 0.0545211C10.5531 0.13155 10.476 0.207966 10.4137 0.33534C10.3631 0.438594 10.3539 0.490363 10.3436 0.72868L10.3318 1.0031H7.37737H4.42294L4.42272 0.734727C4.42254 0.499652 4.41615 0.452703 4.37128 0.35635C4.3109 0.226698 4.2119 0.121911 4.0863 0.0547183C3.99847 0.00774707 3.97294 0.00612591 3.23989 0.00121847C2.6418 -0.00279073 2.46669 0.00246719 2.40077 0.0264129ZM3.94264 0.475619L4.00668 0.539656V1.41868V2.29768L3.95467 2.34969C3.88084 2.42352 3.79071 2.43139 3.11199 2.4233L2.51307 2.41618L2.46023 2.35471L2.40738 2.29323L2.40808 1.41265C2.40861 0.754817 2.41553 0.523357 2.43547 0.497615C2.49749 0.417562 2.5398 0.412917 3.2142 0.412238L3.87861 0.411581L3.94264 0.475619ZM12.3116 0.475619L12.3756 0.539656V1.41868V2.29768L12.3236 2.34969C12.25 2.42328 12.1607 2.4311 11.4846 2.42317L10.8893 2.41618L10.8328 2.36308L10.7763 2.30995V1.42505C10.7763 0.840807 10.7842 0.525328 10.7996 0.496541C10.8125 0.472552 10.8445 0.444246 10.8709 0.433643C10.8972 0.423039 11.2177 0.413728 11.5831 0.412961L12.2475 0.411581L12.3116 0.475619ZM1.99135 2.09304C1.99152 2.34112 1.99735 2.38461 2.04342 2.48191C2.1075 2.61723 2.20935 2.71608 2.35261 2.78203C2.46012 2.8315 2.476 2.83244 3.20703 2.83244C3.93833 2.83244 3.9539 2.83152 4.06145 2.78196C4.19406 2.72086 4.27626 2.64571 4.35369 2.51477C4.40784 2.42319 4.41253 2.39473 4.41956 2.11494L4.42714 1.81371H7.37969H10.3322L10.3429 2.08208C10.3555 2.4005 10.401 2.53184 10.5446 2.6642C10.7207 2.82652 10.7573 2.83244 11.5869 2.83244C12.287 2.83244 12.3254 2.83031 12.4206 2.7863C12.559 2.72222 12.663 2.62514 12.7267 2.50038C12.7748 2.40617 12.7817 2.3615 12.7881 2.10189L12.7954 1.80952L13.1825 1.81761C13.5949 1.82624 13.6477 1.83844 13.7478 1.94855C13.8655 2.07794 13.8654 2.07696 13.8654 2.9737V3.80727L7.34768 3.80729H0.829992L0.830474 2.9803C0.830912 2.22534 0.834461 2.14557 0.871179 2.06475C0.917427 1.9629 1.02594 1.86333 1.11101 1.84464C1.14321 1.83756 1.17943 1.82849 1.19148 1.82446C1.20353 1.82045 1.38839 1.81638 1.60226 1.81544L1.99113 1.81371L1.99135 2.09304ZM2.98326 5.1532C2.75829 5.22457 2.578 5.38382 2.47606 5.6012L2.41834 5.72432L2.41176 6.69924C2.40694 7.41546 2.41229 7.70031 2.43192 7.77274C2.48564 7.97107 2.65676 8.18032 2.84292 8.27529C3.00272 8.35681 3.16762 8.36774 4.10674 8.35915C4.89083 8.35199 5.01588 8.34621 5.10209 8.3131C5.31629 8.23086 5.51703 8.02998 5.59833 7.81655C5.63087 7.73116 5.63707 7.6035 5.64458 6.86239C5.64967 6.36286 5.64421 5.94145 5.6315 5.84972C5.58922 5.54461 5.43486 5.32861 5.16782 5.20089L5.02541 5.1328L4.0505 5.12835C3.28748 5.12487 3.05551 5.13028 2.98326 5.1532ZM6.37336 5.35661C6.23514 5.40604 6.06088 5.58593 6.01374 5.72789C5.98074 5.8272 5.97735 5.9438 5.983 6.77878L5.98937 7.71797L6.04357 7.82407C6.10731 7.94884 6.21126 8.04591 6.34974 8.10999C6.44629 8.15466 6.47968 8.15613 7.40245 8.15613C8.32764 8.15613 8.3584 8.15477 8.456 8.10962C8.58431 8.05027 8.70967 7.92491 8.76902 7.7966C8.81417 7.69899 8.81553 7.66824 8.81553 6.74305C8.81553 5.82028 8.81406 5.78689 8.76939 5.69034C8.70531 5.55186 8.60824 5.44791 8.48347 5.38417L8.37737 5.32997L7.42436 5.32577C6.59919 5.32215 6.45821 5.32627 6.37336 5.35661ZM9.76786 5.35267C9.63663 5.39311 9.49594 5.51657 9.42261 5.65557L9.36324 5.76814L9.35684 6.68502C9.35143 7.46182 9.35566 7.61975 9.38442 7.71873C9.43269 7.88473 9.53739 8.01149 9.69125 8.09019L9.82022 8.15613H10.7748H11.7293L11.8549 8.09448C12.003 8.02177 12.0969 7.91591 12.1578 7.75313C12.2001 7.64028 12.2018 7.59289 12.1957 6.70154L12.1894 5.76814L12.1348 5.66129C12.0631 5.52075 11.9151 5.39283 11.7769 5.35177C11.621 5.30548 9.91852 5.30622 9.76786 5.35267ZM8.28936 5.75705C8.40673 5.80166 8.41279 5.85474 8.40572 6.77705L8.39928 7.61844L8.33855 7.67915L8.27782 7.73988L7.43591 7.7461C6.51353 7.75291 6.4609 7.74691 6.41645 7.62996C6.40337 7.59559 6.39468 7.23115 6.39468 6.71803V5.86335L6.45871 5.79931L6.52275 5.73527H7.37743C7.89055 5.73527 8.25499 5.74397 8.28936 5.75705ZM11.7117 5.78814L11.7731 5.84098L11.7794 6.70193C11.7862 7.6497 11.784 7.66909 11.6605 7.72066C11.567 7.75972 10.0127 7.76492 9.9026 7.72656C9.77056 7.68053 9.7685 7.66539 9.76887 6.73867C9.7692 5.84188 9.77198 5.81732 9.87852 5.7634C9.91931 5.74277 10.1468 5.73585 10.7915 5.7356L11.6502 5.73527L11.7117 5.78814ZM4.81729 6.74305V7.55366H4.01764H3.21799V6.74305V5.93245H4.01764H4.81729V6.74305ZM3.00883 8.61195C2.82662 8.68337 2.68938 8.82295 2.62995 8.99738C2.61229 9.0492 2.60456 9.35298 2.60456 9.99579C2.60456 11.0226 2.60694 11.0428 2.74821 11.2078C2.78975 11.2564 2.87495 11.3216 2.93754 11.3528L3.05133 11.4095L4.01645 11.4093L4.9816 11.4091L5.09114 11.3572C5.22646 11.2931 5.32531 11.1913 5.39126 11.048C5.44138 10.9391 5.44167 10.9332 5.44167 9.99642C5.44167 9.08662 5.44009 9.05099 5.39584 8.95578C5.33307 8.82074 5.24785 8.72507 5.12718 8.65411L5.02541 8.5943L4.0505 8.59005C3.33789 8.58693 3.05762 8.59283 3.00883 8.61195ZM6.33945 8.63454C6.20957 8.69556 6.10485 8.79465 6.03781 8.91998C5.99003 9.00935 5.98931 9.02413 5.98515 10.0262C5.9828 10.5848 5.9869 11.0359 5.99424 11.0285C6.00158 11.0212 6.03468 11.0627 6.06783 11.1207C6.13445 11.2374 6.25048 11.3365 6.3708 11.3795C6.4301 11.4007 6.68391 11.4078 7.40245 11.4083L8.35546 11.4091L8.465 11.3579C8.52525 11.3298 8.61246 11.2648 8.65882 11.2133C8.82035 11.0342 8.81553 11.0713 8.81553 10.0074C8.81553 9.05882 8.81529 9.05386 8.76506 8.94483C8.70395 8.81222 8.62881 8.73002 8.49786 8.65259L8.39928 8.5943L7.42436 8.58858L6.44945 8.58286L6.33945 8.63454ZM10.4639 8.8327C10.3189 8.88629 10.1594 9.03288 10.0824 9.18341C9.9747 9.39392 9.9743 9.38978 10.3369 11.8258C10.7292 14.4612 10.7265 14.4445 10.7768 14.5424C10.8497 14.684 10.971 14.8013 11.1207 14.875C11.2455 14.9364 11.2895 14.9466 11.432 14.9471C11.7223 14.9481 11.7535 14.9281 12.2819 14.4038C12.5377 14.15 12.7506 13.9468 12.7552 13.9521C12.7597 13.9574 13.0471 14.3216 13.3938 14.7615C13.7406 15.2013 14.069 15.6074 14.1236 15.664C14.2675 15.8131 14.4018 15.8668 14.6322 15.8674C14.791 15.8678 14.8361 15.8591 14.9389 15.8084C15.0957 15.7311 15.804 15.1426 15.8845 15.0226C16.011 14.8343 16.037 14.5473 15.9454 14.351C15.916 14.2879 15.5931 13.857 15.2279 13.3935C14.8627 12.93 14.5632 12.5433 14.5623 12.5342C14.5614 12.525 14.7814 12.381 15.051 12.214C15.3207 12.0471 15.5788 11.8742 15.6246 11.8298C15.8219 11.6385 15.8934 11.2956 15.7921 11.0269C15.7376 10.8824 15.5865 10.716 15.4433 10.643C15.3725 10.6069 14.3502 10.1934 11.4993 9.04784C10.9392 8.82275 10.9122 8.81432 10.7325 8.8084C10.6133 8.80448 10.5167 8.8132 10.4639 8.8327ZM4.96067 9.05338L5.01446 9.10714V9.99642V10.8857L4.96067 10.9395L4.90691 10.9932H4.01764H3.12836L3.0746 10.9395L3.02081 10.8857V10.0004V9.11512L3.07856 9.05735L3.13633 8.9996H4.02162H4.90691L4.96067 9.05338ZM8.3378 9.05246L8.39928 9.10535V9.99276V10.8802L8.34617 10.9367L8.29304 10.9932H7.41137C6.92645 10.9932 6.51375 10.9871 6.49425 10.9796C6.4005 10.9437 6.39468 10.8855 6.39468 9.98487V9.12767L6.45871 9.06363L6.52275 8.9996H7.39954H8.27633L8.3378 9.05246ZM12.9281 10.5062C14.443 11.1128 14.9308 11.3169 14.9107 11.3355C14.8961 11.349 14.6919 11.4769 14.4569 11.6197C13.8579 11.9838 13.7601 12.0836 13.7129 12.3791C13.6775 12.6003 13.7222 12.7849 13.8548 12.9656C13.8963 13.022 13.923 13.0761 13.9142 13.0858C13.9054 13.0955 13.9081 13.0981 13.9201 13.0915C13.9322 13.0849 14.2142 13.4256 14.5469 13.8486L15.1517 14.6176L14.8979 14.8204C14.7584 14.9319 14.6377 15.0161 14.6298 15.0073C14.622 14.9986 14.3269 14.6267 13.9742 14.1809C13.6214 13.7351 13.3024 13.3379 13.2654 13.2983C13.2283 13.2587 13.1435 13.2001 13.0771 13.1681C12.9764 13.1196 12.925 13.1097 12.77 13.1086C12.4607 13.1066 12.4319 13.1241 11.9327 13.6182C11.6566 13.8913 11.4971 14.0345 11.4907 14.0147C11.4852 13.9976 11.3411 13.0373 11.1704 11.8805C10.9998 10.7238 10.8546 9.75355 10.8478 9.72445C10.8374 9.67967 10.8419 9.67384 10.8771 9.68653C10.9 9.69477 11.8229 10.0636 12.9281 10.5062ZM3.102 11.8682C2.95585 11.8975 2.8159 11.9781 2.74186 12.0755C2.60532 12.2551 2.60453 12.262 2.60478 13.2909C2.60499 14.2235 2.60504 14.2248 2.65622 14.3347C2.71659 14.4644 2.8156 14.5691 2.9412 14.6363C3.03001 14.6838 3.04997 14.6849 3.97382 14.6913C4.62969 14.6959 4.94315 14.6904 5.00567 14.673C5.1495 14.6331 5.30025 14.5043 5.37555 14.3571L5.44167 14.2278V13.2952C5.44167 12.4304 5.43862 12.3546 5.39991 12.2543C5.34457 12.1108 5.21514 11.9741 5.0742 11.9104C4.96035 11.8589 4.95461 11.8586 4.07241 11.8551C3.5844 11.8532 3.14773 11.8591 3.102 11.8682ZM6.46362 11.8706C6.25227 11.9136 6.05243 12.0998 6.00162 12.301C5.98716 12.3582 5.97842 12.7317 5.97842 13.2915C5.97842 14.3199 5.98175 14.3424 6.15894 14.5133C6.34451 14.6923 6.28862 14.684 7.35579 14.6911C8.42585 14.6983 8.43759 14.6969 8.61356 14.542C8.66976 14.4926 8.73294 14.4075 8.76319 14.3406L8.81553 14.2247V13.2717V12.3187L8.76282 12.2091C8.73384 12.1489 8.71167 12.0922 8.71353 12.0832C8.71541 12.0742 8.70937 12.0692 8.70008 12.0722C8.69081 12.0752 8.65383 12.0504 8.61792 12.0169C8.58201 11.9835 8.50827 11.9342 8.45405 11.9074C8.35737 11.8596 8.33809 11.8586 7.45722 11.8549C6.96319 11.8528 6.51607 11.8599 6.46362 11.8706ZM4.95796 12.328L5.01446 12.3811V13.2731C5.01446 14.1186 5.01227 14.1678 4.97259 14.2168L4.93073 14.2685L4.05878 14.2747C3.13237 14.2813 3.09068 14.2774 3.04557 14.1784C3.0285 14.1409 3.02081 13.8567 3.02081 13.2646C3.02081 12.3157 3.01891 12.3292 3.15872 12.2876C3.19908 12.2756 3.58466 12.2684 4.0652 12.2708L4.90143 12.2749L4.95796 12.328ZM8.33855 12.3356L8.39928 12.3963L8.40598 13.2119C8.40966 13.6605 8.40653 14.0607 8.39904 14.1012C8.39154 14.1417 8.36188 14.1984 8.33309 14.2272L8.28078 14.2795H7.40177H6.52275L6.45871 14.2154L6.39468 14.1514L6.395 13.2898C6.39525 12.6405 6.40212 12.4147 6.42296 12.3735C6.47431 12.2717 6.53958 12.265 7.44031 12.2701L8.27784 12.2749L8.33855 12.3356Z" />
	<path
		d="M2.40077 0.0264129C2.21728 0.0930576 2.07775 0.232219 2.01676 0.409368C2.00267 0.450337 1.99113 0.600671 1.99113 0.743469V1.0031L1.56939 1.00347C1.28393 1.00374 1.0981 1.01428 0.994303 1.03605C0.583546 1.12231 0.226661 1.43075 0.0818701 1.82466C0.0349646 1.95228 0.0331024 1.99215 0.0179638 3.19392C0.00937583 3.87472 0.00162045 6.80275 0.000700304 9.70066C-0.00109617 15.4257 -0.00826021 15.086 0.119465 15.347C0.19071 15.4927 0.426596 15.7492 0.579646 15.8476C0.64077 15.8868 0.764004 15.942 0.853499 15.9701L1.01621 16.0212H5.21163C9.40035 16.0212 9.40719 16.0211 9.48343 15.9763C9.52545 15.9516 9.58846 15.8907 9.62349 15.8408C9.76387 15.6411 9.66529 15.3326 9.43302 15.2448C9.39025 15.2287 8.12231 15.2215 5.29659 15.2215C2.28069 15.2215 1.19564 15.2149 1.12102 15.1961C0.986898 15.1624 0.867235 15.0427 0.833475 14.9086C0.81459 14.8336 0.808083 13.502 0.808083 9.71286V4.61796H7.33673H13.8654V6.3911C13.8654 7.58816 13.8729 8.18426 13.8886 8.22591C13.9202 8.30956 14.0362 8.4286 14.1221 8.46545C14.282 8.53405 14.4913 8.47496 14.6018 8.33002L14.665 8.24718L14.6707 5.1608C14.677 1.75256 14.6835 1.92566 14.5387 1.65165C14.4427 1.46999 14.1991 1.23018 14.0187 1.13972C13.7978 1.02895 13.6136 1.00017 13.1741 1.00764L12.7958 1.01406L12.7878 0.718296C12.7816 0.484733 12.7715 0.406411 12.7397 0.345856C12.6838 0.239536 12.5566 0.11019 12.4523 0.0537105C12.3671 0.00757185 12.3431 0.00627925 11.576 0.00627925C10.805 0.00627925 10.7852 0.00737465 10.6971 0.0545211C10.5531 0.13155 10.476 0.207966 10.4137 0.33534C10.3631 0.438594 10.3539 0.490363 10.3436 0.72868L10.3318 1.0031H7.37737H4.42294L4.42272 0.734727C4.42254 0.499652 4.41615 0.452703 4.37128 0.35635C4.3109 0.226698 4.2119 0.121911 4.0863 0.0547183C3.99847 0.00774707 3.97294 0.00612591 3.23989 0.00121847C2.6418 -0.00279073 2.46669 0.00246719 2.40077 0.0264129ZM3.94264 0.475619L4.00668 0.539656V1.41868V2.29768L3.95467 2.34969C3.88084 2.42352 3.79071 2.43139 3.11199 2.4233L2.51307 2.41618L2.46023 2.35471L2.40738 2.29323L2.40808 1.41265C2.40861 0.754817 2.41553 0.523357 2.43547 0.497615C2.49749 0.417562 2.5398 0.412917 3.2142 0.412238L3.87861 0.411581L3.94264 0.475619ZM12.3116 0.475619L12.3756 0.539656V1.41868V2.29768L12.3236 2.34969C12.25 2.42328 12.1607 2.4311 11.4846 2.42317L10.8893 2.41618L10.8328 2.36308L10.7763 2.30995V1.42505C10.7763 0.840807 10.7842 0.525328 10.7996 0.496541C10.8125 0.472552 10.8445 0.444246 10.8709 0.433643C10.8972 0.423039 11.2177 0.413728 11.5831 0.412961L12.2475 0.411581L12.3116 0.475619ZM1.99135 2.09304C1.99152 2.34112 1.99735 2.38461 2.04342 2.48191C2.1075 2.61723 2.20935 2.71608 2.35261 2.78203C2.46012 2.8315 2.476 2.83244 3.20703 2.83244C3.93833 2.83244 3.9539 2.83152 4.06145 2.78196C4.19406 2.72086 4.27626 2.64571 4.35369 2.51477C4.40784 2.42319 4.41253 2.39473 4.41956 2.11494L4.42714 1.81371H7.37969H10.3322L10.3429 2.08208C10.3555 2.4005 10.401 2.53184 10.5446 2.6642C10.7207 2.82652 10.7573 2.83244 11.5869 2.83244C12.287 2.83244 12.3254 2.83031 12.4206 2.7863C12.559 2.72222 12.663 2.62514 12.7267 2.50038C12.7748 2.40617 12.7817 2.3615 12.7881 2.10189L12.7954 1.80952L13.1825 1.81761C13.5949 1.82624 13.6477 1.83844 13.7478 1.94855C13.8655 2.07794 13.8654 2.07696 13.8654 2.9737V3.80727L7.34768 3.80729H0.829992L0.830474 2.9803C0.830912 2.22534 0.834461 2.14557 0.871179 2.06475C0.917427 1.9629 1.02594 1.86333 1.11101 1.84464C1.14321 1.83756 1.17943 1.82849 1.19148 1.82446C1.20353 1.82045 1.38839 1.81638 1.60226 1.81544L1.99113 1.81371L1.99135 2.09304ZM2.98326 5.1532C2.75829 5.22457 2.578 5.38382 2.47606 5.6012L2.41834 5.72432L2.41176 6.69924C2.40694 7.41546 2.41229 7.70031 2.43192 7.77274C2.48564 7.97107 2.65676 8.18032 2.84292 8.27529C3.00272 8.35681 3.16762 8.36774 4.10674 8.35915C4.89083 8.35199 5.01588 8.34621 5.10209 8.3131C5.31629 8.23086 5.51703 8.02998 5.59833 7.81655C5.63087 7.73116 5.63707 7.6035 5.64458 6.86239C5.64967 6.36286 5.64421 5.94145 5.6315 5.84972C5.58922 5.54461 5.43486 5.32861 5.16782 5.20089L5.02541 5.1328L4.0505 5.12835C3.28748 5.12487 3.05551 5.13028 2.98326 5.1532ZM6.37336 5.35661C6.23514 5.40604 6.06088 5.58593 6.01374 5.72789C5.98074 5.8272 5.97735 5.9438 5.983 6.77878L5.98937 7.71797L6.04357 7.82407C6.10731 7.94884 6.21126 8.04591 6.34974 8.10999C6.44629 8.15466 6.47968 8.15613 7.40245 8.15613C8.32764 8.15613 8.3584 8.15477 8.456 8.10962C8.58431 8.05027 8.70967 7.92491 8.76902 7.7966C8.81417 7.69899 8.81553 7.66824 8.81553 6.74305C8.81553 5.82028 8.81406 5.78689 8.76939 5.69034C8.70531 5.55186 8.60824 5.44791 8.48347 5.38417L8.37737 5.32997L7.42436 5.32577C6.59919 5.32215 6.45821 5.32627 6.37336 5.35661ZM9.76786 5.35267C9.63663 5.39311 9.49594 5.51657 9.42261 5.65557L9.36324 5.76814L9.35684 6.68502C9.35143 7.46182 9.35566 7.61975 9.38442 7.71873C9.43269 7.88473 9.53739 8.01149 9.69125 8.09019L9.82022 8.15613H10.7748H11.7293L11.8549 8.09448C12.003 8.02177 12.0969 7.91591 12.1578 7.75313C12.2001 7.64028 12.2018 7.59289 12.1957 6.70154L12.1894 5.76814L12.1348 5.66129C12.0631 5.52075 11.9151 5.39283 11.7769 5.35177C11.621 5.30548 9.91852 5.30622 9.76786 5.35267ZM8.28936 5.75705C8.40673 5.80166 8.41279 5.85474 8.40572 6.77705L8.39928 7.61844L8.33855 7.67915L8.27782 7.73988L7.43591 7.7461C6.51353 7.75291 6.4609 7.74691 6.41645 7.62996C6.40337 7.59559 6.39468 7.23115 6.39468 6.71803V5.86335L6.45871 5.79931L6.52275 5.73527H7.37743C7.89055 5.73527 8.25499 5.74397 8.28936 5.75705ZM11.7117 5.78814L11.7731 5.84098L11.7794 6.70193C11.7862 7.6497 11.784 7.66909 11.6605 7.72066C11.567 7.75972 10.0127 7.76492 9.9026 7.72656C9.77056 7.68053 9.7685 7.66539 9.76887 6.73867C9.7692 5.84188 9.77198 5.81732 9.87852 5.7634C9.91931 5.74277 10.1468 5.73585 10.7915 5.7356L11.6502 5.73527L11.7117 5.78814ZM4.81729 6.74305V7.55366H4.01764H3.21799V6.74305V5.93245H4.01764H4.81729V6.74305ZM3.00883 8.61195C2.82662 8.68337 2.68938 8.82295 2.62995 8.99738C2.61229 9.0492 2.60456 9.35298 2.60456 9.99579C2.60456 11.0226 2.60694 11.0428 2.74821 11.2078C2.78975 11.2564 2.87495 11.3216 2.93754 11.3528L3.05133 11.4095L4.01645 11.4093L4.9816 11.4091L5.09114 11.3572C5.22646 11.2931 5.32531 11.1913 5.39126 11.048C5.44138 10.9391 5.44167 10.9332 5.44167 9.99642C5.44167 9.08662 5.44009 9.05099 5.39584 8.95578C5.33307 8.82074 5.24785 8.72507 5.12718 8.65411L5.02541 8.5943L4.0505 8.59005C3.33789 8.58693 3.05762 8.59283 3.00883 8.61195ZM6.33945 8.63454C6.20957 8.69556 6.10485 8.79465 6.03781 8.91998C5.99003 9.00935 5.98931 9.02413 5.98515 10.0262C5.9828 10.5848 5.9869 11.0359 5.99424 11.0285C6.00158 11.0212 6.03468 11.0627 6.06783 11.1207C6.13445 11.2374 6.25048 11.3365 6.3708 11.3795C6.4301 11.4007 6.68391 11.4078 7.40245 11.4083L8.35546 11.4091L8.465 11.3579C8.52525 11.3298 8.61246 11.2648 8.65882 11.2133C8.82035 11.0342 8.81553 11.0713 8.81553 10.0074C8.81553 9.05882 8.81529 9.05386 8.76506 8.94483C8.70395 8.81222 8.62881 8.73002 8.49786 8.65259L8.39928 8.5943L7.42436 8.58858L6.44945 8.58286L6.33945 8.63454ZM10.4639 8.8327C10.3189 8.88629 10.1594 9.03288 10.0824 9.18341C9.9747 9.39392 9.9743 9.38978 10.3369 11.8258C10.7292 14.4612 10.7265 14.4445 10.7768 14.5424C10.8497 14.684 10.971 14.8013 11.1207 14.875C11.2455 14.9364 11.2895 14.9466 11.432 14.9471C11.7223 14.9481 11.7535 14.9281 12.2819 14.4038C12.5377 14.15 12.7506 13.9468 12.7552 13.9521C12.7597 13.9574 13.0471 14.3216 13.3938 14.7615C13.7406 15.2013 14.069 15.6074 14.1236 15.664C14.2675 15.8131 14.4018 15.8668 14.6322 15.8674C14.791 15.8678 14.8361 15.8591 14.9389 15.8084C15.0957 15.7311 15.804 15.1426 15.8845 15.0226C16.011 14.8343 16.037 14.5473 15.9454 14.351C15.916 14.2879 15.5931 13.857 15.2279 13.3935C14.8627 12.93 14.5632 12.5433 14.5623 12.5342C14.5614 12.525 14.7814 12.381 15.051 12.214C15.3207 12.0471 15.5788 11.8742 15.6246 11.8298C15.8219 11.6385 15.8934 11.2956 15.7921 11.0269C15.7376 10.8824 15.5865 10.716 15.4433 10.643C15.3725 10.6069 14.3502 10.1934 11.4993 9.04784C10.9392 8.82275 10.9122 8.81432 10.7325 8.8084C10.6133 8.80448 10.5167 8.8132 10.4639 8.8327ZM4.96067 9.05338L5.01446 9.10714V9.99642V10.8857L4.96067 10.9395L4.90691 10.9932H4.01764H3.12836L3.0746 10.9395L3.02081 10.8857V10.0004V9.11512L3.07856 9.05735L3.13633 8.9996H4.02162H4.90691L4.96067 9.05338ZM8.3378 9.05246L8.39928 9.10535V9.99276V10.8802L8.34617 10.9367L8.29304 10.9932H7.41137C6.92645 10.9932 6.51375 10.9871 6.49425 10.9796C6.4005 10.9437 6.39468 10.8855 6.39468 9.98487V9.12767L6.45871 9.06363L6.52275 8.9996H7.39954H8.27633L8.3378 9.05246ZM12.9281 10.5062C14.443 11.1128 14.9308 11.3169 14.9107 11.3355C14.8961 11.349 14.6919 11.4769 14.4569 11.6197C13.8579 11.9838 13.7601 12.0836 13.7129 12.3791C13.6775 12.6003 13.7222 12.7849 13.8548 12.9656C13.8963 13.022 13.923 13.0761 13.9142 13.0858C13.9054 13.0955 13.9081 13.0981 13.9201 13.0915C13.9322 13.0849 14.2142 13.4256 14.5469 13.8486L15.1517 14.6176L14.8979 14.8204C14.7584 14.9319 14.6377 15.0161 14.6298 15.0073C14.622 14.9986 14.3269 14.6267 13.9742 14.1809C13.6214 13.7351 13.3024 13.3379 13.2654 13.2983C13.2283 13.2587 13.1435 13.2001 13.0771 13.1681C12.9764 13.1196 12.925 13.1097 12.77 13.1086C12.4607 13.1066 12.4319 13.1241 11.9327 13.6182C11.6566 13.8913 11.4971 14.0345 11.4907 14.0147C11.4852 13.9976 11.3411 13.0373 11.1704 11.8805C10.9998 10.7238 10.8546 9.75355 10.8478 9.72445C10.8374 9.67967 10.8419 9.67384 10.8771 9.68653C10.9 9.69477 11.8229 10.0636 12.9281 10.5062ZM3.102 11.8682C2.95585 11.8975 2.8159 11.9781 2.74186 12.0755C2.60532 12.2551 2.60453 12.262 2.60478 13.2909C2.60499 14.2235 2.60504 14.2248 2.65622 14.3347C2.71659 14.4644 2.8156 14.5691 2.9412 14.6363C3.03001 14.6838 3.04997 14.6849 3.97382 14.6913C4.62969 14.6959 4.94315 14.6904 5.00567 14.673C5.1495 14.6331 5.30025 14.5043 5.37555 14.3571L5.44167 14.2278V13.2952C5.44167 12.4304 5.43862 12.3546 5.39991 12.2543C5.34457 12.1108 5.21514 11.9741 5.0742 11.9104C4.96035 11.8589 4.95461 11.8586 4.07241 11.8551C3.5844 11.8532 3.14773 11.8591 3.102 11.8682ZM6.46362 11.8706C6.25227 11.9136 6.05243 12.0998 6.00162 12.301C5.98716 12.3582 5.97842 12.7317 5.97842 13.2915C5.97842 14.3199 5.98175 14.3424 6.15894 14.5133C6.34451 14.6923 6.28862 14.684 7.35579 14.6911C8.42585 14.6983 8.43759 14.6969 8.61356 14.542C8.66976 14.4926 8.73294 14.4075 8.76319 14.3406L8.81553 14.2247V13.2717V12.3187L8.76282 12.2091C8.73384 12.1489 8.71167 12.0922 8.71353 12.0832C8.71541 12.0742 8.70937 12.0692 8.70008 12.0722C8.69081 12.0752 8.65383 12.0504 8.61792 12.0169C8.58201 11.9835 8.50827 11.9342 8.45405 11.9074C8.35737 11.8596 8.33809 11.8586 7.45722 11.8549C6.96319 11.8528 6.51607 11.8599 6.46362 11.8706ZM4.95796 12.328L5.01446 12.3811V13.2731C5.01446 14.1186 5.01227 14.1678 4.97259 14.2168L4.93073 14.2685L4.05878 14.2747C3.13237 14.2813 3.09068 14.2774 3.04557 14.1784C3.0285 14.1409 3.02081 13.8567 3.02081 13.2646C3.02081 12.3157 3.01891 12.3292 3.15872 12.2876C3.19908 12.2756 3.58466 12.2684 4.0652 12.2708L4.90143 12.2749L4.95796 12.328ZM8.33855 12.3356L8.39928 12.3963L8.40598 13.2119C8.40966 13.6605 8.40653 14.0607 8.39904 14.1012C8.39154 14.1417 8.36188 14.1984 8.33309 14.2272L8.28078 14.2795H7.40177H6.52275L6.45871 14.2154L6.39468 14.1514L6.395 13.2898C6.39525 12.6405 6.40212 12.4147 6.42296 12.3735C6.47431 12.2717 6.53958 12.265 7.44031 12.2701L8.27784 12.2749L8.33855 12.3356Z" />
</svg>
