<svg width="50" height="41" viewBox="0 0 50 41" xmlns="http://www.w3.org/2000/svg">
	<rect width="50" height="40.71" rx="4.5" />
	<path
		d="M7 27.7C7 27.3134 7.3134 27 7.7 27H45.3C45.6866 27 46 27.3134 46 27.7V29.3C46 29.6866 45.6866 30 45.3 30H7.7C7.3134 30 7 29.6866 7 29.3V27.7Z"
		fill="white" />
	<rect x="28" y="9" width="18" height="3" rx="0.7" fill="white" />
	<rect x="28" y="15" width="18" height="3" rx="0.7" fill="white" />
	<rect x="28" y="21" width="18" height="3" rx="0.7" fill="white" />
	<path fill-rule="evenodd" clip-rule="evenodd"
		d="M7 10.6478V13.2956H9.66667H12.3333V10.6478V8H9.66667H7V10.6478ZM13.8571 8.75652V9.51303H13.4762H13.0952V9.89129V10.2695H13.4762H13.8571V10.6478V11.0261H14.2381H14.619V11.4043V11.7826H15H15.381V11.4043V11.0261H15.7619H16.1429V12.1608V13.2956H15.7619H15.381V12.9174V12.5391H15H14.619V12.9174V13.2956H14.2381H13.8571V12.9174V12.5391H13.4762H13.0952V13.2956V14.0521H11.5714H10.0476V14.4304V14.8086H9.66667H9.28571V14.4304V14.0521H8.14286H7V15.1869V16.3217H7.7619H8.52381V15.9434V15.5652H9.28571H10.0476V15.9434V16.3217H9.66667H9.28571V17.0782V17.8347H9.66667H10.0476V17.4564V17.0782H10.4286H10.8095V17.4564V17.8347H11.9524H13.0952V19.3477V20.8608H13.4762H13.8571V21.239V21.6173H13.4762H13.0952V22.7521V23.8868H13.4762H13.8571V23.5086V23.1303H14.619H15.381V21.9955V20.8608H15.7619H16.1429V20.4825V20.1043H16.5238H16.9048V20.4825V20.8608H17.2857H17.6667V21.239V21.6173H18.4286H19.1905V21.9955V22.3738H18.4286H17.6667V23.1303V23.8868H18.0476H18.4286V23.5086V23.1303H19.1905H19.9524V23.5086V23.8868H20.3333H20.7143V23.1303V22.3738H21.0952H21.4762V23.1303V23.8868H22.2381H23V23.5086V23.1303H22.619H22.2381V22.7521V22.3738H22.619H23V21.9955V21.6173H22.619H22.2381V21.239V20.8608H22.619H23V19.3477V17.8347H22.2381H21.4762V18.213V18.5912H21.0952H20.7143V18.9695V19.3477H21.4762H22.2381V19.726V20.1043H21.8571H21.4762V20.8608V21.6173H21.0952H20.7143V20.8608V20.1043H20.3333H19.9524V18.9695V17.8347H20.3333H20.7143V17.4564V17.0782H20.3333H19.9524V16.3217V15.5652H19.5714H19.1905V15.1869V14.8086H18.8095H18.4286V14.4304V14.0521H17.6667H16.9048V12.5391V11.0261H16.5238H16.1429V10.6478V10.2695H16.5238H16.9048V9.89129V9.51303H16.5238H16.1429V9.13477V8.75652H16.5238H16.9048V8.37826V8H16.1429H15.381V8.37826V8.75652H15H14.619V8.37826V8H14.2381H13.8571V8.75652ZM17.6667 10.6478V13.2956H20.3333H23V10.6478V8H20.3333H17.6667V10.6478ZM11.5714 10.6478V12.5391H9.66667H7.7619V10.6478V8.75652H9.66667H11.5714V10.6478ZM22.2381 10.6478V12.5391H20.3333H18.4286V10.6478V8.75652H20.3333H22.2381V10.6478ZM8.52381 10.6478V11.7826H9.66667H10.8095V10.6478V9.51303H9.66667H8.52381V10.6478ZM15.381 10.2695V11.0261H15H14.619V10.2695V9.51303H15H15.381V10.2695ZM19.1905 10.6478V11.7826H20.3333H21.4762V10.6478V9.51303H20.3333H19.1905V10.6478ZM15.381 13.6739V14.0521H15H14.619V13.6739V13.2956H15H15.381V13.6739ZM16.9048 14.4304V14.8086H17.2857H17.6667V15.1869V15.5652H18.4286H19.1905V16.3217V17.0782H19.5714H19.9524V17.4564V17.8347H19.5714H19.1905V17.4564V17.0782H18.8095H18.4286V16.6999V16.3217H18.0476H17.6667V17.0782V17.8347H18.0476H18.4286V18.213V18.5912H18.8095H19.1905V19.3477V20.1043H19.5714H19.9524V20.4825V20.8608H19.5714H19.1905V20.4825V20.1043H18.4286H17.6667V19.726V19.3477H18.0476H18.4286V18.9695V18.5912H18.0476H17.6667V18.213V17.8347H17.2857H16.9048V18.5912V19.3477H16.5238H16.1429V18.5912V17.8347H15.7619H15.381V18.213V18.5912H15H14.619V18.9695V19.3477H15H15.381V19.726V20.1043H15H14.619V20.4825V20.8608H14.2381H13.8571V20.4825V20.1043H14.2381H14.619V19.726V19.3477H14.2381H13.8571V18.5912V17.8347H13.4762H13.0952V17.4564V17.0782H12.3333H11.5714V16.6999V16.3217H11.1905H10.8095V15.5652V14.8086H12.3333H13.8571V15.1869V15.5652H12.7143H11.5714V15.9434V16.3217H12.7143H13.8571V16.6999V17.0782H14.619H15.381V16.3217V15.5652H15H14.619V15.1869V14.8086H15.381H16.1429V14.4304V14.0521H16.5238H16.9048V14.4304ZM20.7143 14.4304V14.8086H21.0952H21.4762V14.4304V14.0521H21.0952H20.7143V14.4304ZM8.52381 15.1869V15.5652H8.14286H7.7619V15.1869V14.8086H8.14286H8.52381V15.1869ZM22.2381 15.1869V15.5652H21.4762H20.7143V15.9434V16.3217H21.0952H21.4762V16.6999V17.0782H21.8571H22.2381V16.6999V16.3217H22.619H23V15.5652V14.8086H22.619H22.2381V15.1869ZM16.1429 15.9434V16.3217H16.5238H16.9048V15.9434V15.5652H16.5238H16.1429V15.9434ZM7 17.4564V17.8347H7.38095H7.7619V17.4564V17.0782H7.38095H7V17.4564ZM16.1429 17.4564V17.8347H16.5238H16.9048V17.4564V17.0782H16.5238H16.1429V17.4564ZM7 21.239V23.8868H9.66667H12.3333V21.239V18.5912H9.66667H7V21.239ZM11.5714 21.239V23.1303H9.66667H7.7619V21.239V19.3477H9.66667H11.5714V21.239ZM8.52381 21.239V22.3738H9.66667H10.8095V21.239V20.1043H9.66667H8.52381V21.239ZM14.619 21.9955V22.3738H14.2381H13.8571V21.9955V21.6173H14.2381H14.619V21.9955ZM16.1429 21.9955V22.3738H16.5238H16.9048V21.9955V21.6173H16.5238H16.1429V21.9955ZM20.7143 21.9955V22.3738H20.3333H19.9524V21.9955V21.6173H20.3333H20.7143V21.9955ZM22.2381 21.9955V22.3738H21.8571H21.4762V21.9955V21.6173H21.8571H22.2381V21.9955ZM16.1429 23.5086V23.8868H16.5238H16.9048V23.5086V23.1303H16.5238H16.1429V23.5086Z"
		fill="white" />
</svg>
