<svg width="24" height="21" viewBox="0 0 24 21" xmlns="http://www.w3.org/2000/svg">
	<path
		d="M17.2453 13.5082C17.0287 13.7253 16.7869 13.9219 16.5 14.0674V15.0071C19.6181 15.3897 21.75 16.1561 21.75 17.0409C21.75 18.3079 17.385 19.3349 12 19.3349C6.615 19.3349 2.25 18.3079 2.25 17.0409C2.25 16.1561 4.38188 15.3901 7.5 15.0071V14.0674C7.21313 13.9219 6.97125 13.7253 6.75469 13.5082C2.75953 14.1464 0 15.4864 0 17.0409C0 19.2128 5.37281 20.9734 12 20.9734C18.6272 20.9734 24 19.2128 24 17.0409C24 15.4864 21.2405 14.1464 17.2453 13.5082ZM12 5.24336C13.657 5.24336 15 4.06975 15 2.62168C15 1.17361 13.657 0 12 0C10.343 0 9 1.17361 9 2.62168C9 4.06975 10.343 5.24336 12 5.24336ZM9 13.1084V17.0409C9 17.7648 9.67172 18.3518 10.5 18.3518H13.5C14.3283 18.3518 15 17.7648 15 17.0409V13.1084C15.8283 13.1084 16.5 12.5214 16.5 11.7976V7.86504C16.5 6.77909 15.4927 5.89878 14.25 5.89878H13.6969C13.178 6.10483 12.6066 6.22649 12 6.22649C11.3934 6.22649 10.822 6.10483 10.3031 5.89878H9.75C8.50734 5.89878 7.5 6.77909 7.5 7.86504V11.7976C7.5 12.5214 8.17172 13.1084 9 13.1084Z" />
</svg>
