<svg width="15" height="21" viewBox="0 0 15 21" xmlns="http://www.w3.org/2000/svg">
	<path
		d="M13.125 0.571533H1.875C0.839844 0.571533 0 1.41138 0 2.44653V18.6965C0 19.7317 0.839844 20.5715 1.875 20.5715H13.125C14.1602 20.5715 15 19.7317 15 18.6965V2.44653C15 1.41138 14.1602 0.571533 13.125 0.571533ZM5.625 1.82153H9.375C9.71875 1.82153 10 2.10278 10 2.44653C10 2.79028 9.71875 3.07153 9.375 3.07153H5.625C5.28125 3.07153 5 2.79028 5 2.44653C5 2.10278 5.28125 1.82153 5.625 1.82153ZM7.5 6.82153C8.87891 6.82153 10 7.94263 10 9.32153C10 10.7004 8.87891 11.8215 7.5 11.8215C6.12109 11.8215 5 10.7004 5 9.32153C5 7.94263 6.12109 6.82153 7.5 6.82153ZM11.875 16.0715C11.875 16.4856 11.4844 16.8215 11 16.8215H4C3.51562 16.8215 3.125 16.4856 3.125 16.0715V15.3215C3.125 14.0793 4.30078 13.0715 5.75 13.0715H5.94531C6.42578 13.2708 6.94922 13.384 7.5 13.384C8.05078 13.384 8.57812 13.2708 9.05469 13.0715H9.25C10.6992 13.0715 11.875 14.0793 11.875 15.3215V16.0715Z" />
</svg>
