<svg width="21" height="27" viewBox="0 0 21 27" xmlns="http://www.w3.org/2000/svg">
	<path
		d="M17.8281 5.84155H7.42188C5.94624 5.84155 4.75 7.38598 4.75 9.29112V22.7263C4.75 24.6314 5.94624 26.1758 7.42188 26.1758H17.8281C19.3038 26.1758 20.5 24.6314 20.5 22.7263V9.29112C20.5 7.38598 19.3038 5.84155 17.8281 5.84155Z"
		stroke-linejoin="round" />
	<path
		d="M16.2266 5.83345C16.2222 6.10956 16.4424 6.337 16.7185 6.34145C16.9946 6.34591 17.222 6.12569 17.2265 5.84959L16.2266 5.83345ZM16.75 4.38906L17.25 4.39713L17.25 4.38796L16.75 4.38906ZM14.125 1L14.1268 0.5H14.125V1ZM4 1L4 0.499996L3.99809 0.500004L4 1ZM1 4.87322L0.5 4.87207V4.87322H1ZM1 17.9453H0.499999L0.500001 17.9464L1 17.9453ZM3.625 21.3344L3.62316 21.8344H3.625V21.3344ZM4.75 21.8344C5.02614 21.8344 5.25 21.6105 5.25 21.3344C5.25 21.0582 5.02614 20.8344 4.75 20.8344V21.8344ZM17.2265 5.84959L17.2499 4.39713L16.2501 4.381L16.2266 5.83345L17.2265 5.84959ZM17.25 4.38796C17.2478 3.39319 16.9417 2.42191 16.3743 1.68928L15.5837 2.30163C15.9999 2.83904 16.2482 3.58883 16.25 4.39017L17.25 4.38796ZM16.3743 1.68928C15.8046 0.953789 15.0015 0.503216 14.1268 0.500003L14.1232 1.5C14.6397 1.50189 15.1696 1.76708 15.5837 2.30163L16.3743 1.68928ZM14.125 0.5H4V1.5H14.125V0.5ZM3.99809 0.500004C3.02414 0.50372 2.12589 1.00544 1.48598 1.83161L2.27657 2.44396C2.76086 1.81871 3.38601 1.50235 4.00191 1.5L3.99809 0.500004ZM1.48598 1.83161C0.848286 2.65493 0.502572 3.74906 0.500001 4.87207L1.5 4.87436C1.50213 3.94476 1.79006 3.07208 2.27657 2.44396L1.48598 1.83161ZM0.5 4.87322V17.9453H1.5V4.87322H0.5ZM0.500001 17.9464C0.502193 18.9412 0.808277 19.9125 1.37574 20.6451L2.16632 20.0327C1.75007 19.4953 1.50176 18.7455 1.5 17.9442L0.500001 17.9464ZM1.37574 20.6451C1.94541 21.3806 2.74852 21.8312 3.62316 21.8344L3.62684 20.8344C3.11031 20.8325 2.58036 20.5673 2.16632 20.0327L1.37574 20.6451ZM3.625 21.8344H4.75V20.8344H3.625V21.8344Z" />
	<path d="M12.625 11.1672V20.8503" stroke="white" stroke-linecap="round" stroke-linejoin="round" />
	<path d="M16.375 16.0085H8.875" stroke="white" stroke-linecap="round" stroke-linejoin="round" />
</svg>
