<svg width="60" height="45" viewBox="0 0 60 45" xmlns="http://www.w3.org/2000/svg">
	<path
		d="M59.0625 41.25H3.75V0.9375C3.75 0.419531 3.33047 0 2.8125 0H0.9375C0.419531 0 0 0.419531 0 0.9375V43.125C0 44.1609 0.839062 45 1.875 45H59.0625C59.5805 45 60 44.5805 60 44.0625V42.1875C60 41.6695 59.5805 41.25 59.0625 41.25ZM11.5242 23.3238C11.1586 23.6895 11.1586 24.2836 11.5242 24.6492L12.8496 25.9746C13.2152 26.3402 13.8094 26.3402 14.175 25.9746L22.6934 17.5359L32.618 27.4605C33.3504 28.193 34.5375 28.193 35.2699 27.4605L46.2305 16.5L51.3914 21.6609C51.9715 22.241 52.684 22.5 53.3836 22.5C54.8461 22.5 56.25 21.3633 56.25 19.6477V5.64727C56.25 4.59961 55.4004 3.75 54.3527 3.75H40.3523C37.8164 3.75 36.5473 6.81563 38.3402 8.60859L43.5797 13.848L33.9445 23.4832L24.027 13.5656C23.2969 12.8355 22.1145 12.8332 21.382 13.5598L11.5242 23.3238V23.3238ZM42.5344 7.5H52.5V17.4656L42.5344 7.5Z" />
</svg>
