<svg width="60" height="60" viewBox="0 0 60 60" xmlns="http://www.w3.org/2000/svg">
	<path
		d="M18.9843 0.956224C18.0133 1.92722 17.9827 2.6253 17.9827 23.9917V46.0257H12.5744C9.03543 46.0257 6.95823 46.2335 6.56512 46.6266C6.23461 46.9571 5.96419 48.1029 5.96419 49.1721C5.96419 50.2417 5.50048 52.9329 4.93361 55.1528C4.35171 57.4318 4.09231 59.3773 4.33769 59.6227C4.57656 59.8615 15.5755 59.9987 28.7794 59.9271C52.3772 59.7989 52.7879 59.7799 52.871 58.7954C52.9176 58.2445 53.2225 54.5263 53.5491 50.5327C53.9727 45.3432 54.4129 42.7311 55.0919 41.378C55.815 39.9358 56.0414 38.4025 56.0414 34.9436C56.0414 30.6024 55.9788 30.3445 54.6212 29.0751C53.6417 28.1597 53.1109 27.0715 52.9096 25.5687C52.1614 19.9821 46.9794 15.702 41.4324 16.0896C35.2629 16.5207 31.0028 21.2951 31.0028 27.7771V30.9475L28.6241 31.1002L26.2455 31.2529L26.0887 33.4353C26.0026 34.6356 26.258 36.3258 26.6561 37.1911C27.0547 38.0564 27.5329 40.398 27.7197 42.3951L28.0588 46.0257H26.0256H23.992V23.9917C23.992 2.6253 23.9614 1.92722 22.9904 0.956224C21.7155 -0.318741 20.2592 -0.318741 18.9843 0.956224ZM21.8692 24.1585C21.9979 45.7733 21.9879 46.0257 20.9929 46.0257C19.9993 46.0257 19.9858 45.7297 19.9858 24.3258C19.9858 12.3904 20.1405 2.47056 20.3303 2.28127C21.5898 1.02132 21.744 3.2112 21.8692 24.1585ZM52.4333 13.5256L50.0772 15.9769L52.5585 18.4582L55.0399 20.9395L57.5197 18.4592L60 15.9794L57.4961 13.4755C56.119 12.0984 54.9467 10.9947 54.8906 11.0232C54.835 11.0513 53.7293 12.1775 52.4333 13.5256ZM56.0624 15.2533C56.5942 15.8948 56.5617 16.1747 55.8731 16.8627C55.0959 17.6404 54.9838 17.6404 54.2066 16.8627C53.518 16.1747 53.4855 15.8948 54.0173 15.2533C54.3718 14.8266 54.832 14.4771 55.0399 14.4771C55.2477 14.4771 55.7079 14.8266 56.0624 15.2533ZM45.398 18.7527C46.4116 19.1763 47.6755 19.9089 48.2068 20.3802C49.4823 21.5134 51.0091 24.8956 51.0227 26.6208L51.0337 27.9979H45.726C40.4744 27.9979 40.4038 28.0139 39.0151 29.5002C37.8494 30.7482 37.2219 31.0025 35.3089 31.0025H33.0059V28.2323C33.0059 23.5806 34.7155 20.5534 38.264 18.9244C40.7238 17.7947 42.9758 17.7406 45.398 18.7527ZM8.3654 25.5441L6.00926 27.9954L8.49059 30.4767L10.9719 32.9581L13.4517 30.4777L15.9321 27.9979L13.4282 25.4941C12.0511 24.1169 10.8788 23.0132 10.8227 23.0418C10.7671 23.0698 9.66139 24.1961 8.3654 25.5441ZM11.9945 27.2718C12.5263 27.9133 12.4938 28.1932 11.8052 28.8813C11.028 29.659 10.9158 29.659 10.1386 28.8813C9.45007 28.1932 9.41752 27.9133 9.94934 27.2718C10.3039 26.8451 10.7641 26.4956 10.9719 26.4956C11.1797 26.4956 11.6399 26.8451 11.9945 27.2718ZM53.4975 30.7036C53.867 31.1493 54.0268 32.935 53.9341 35.5861C53.818 38.9027 53.6327 39.7661 53.0368 39.7661C52.4959 39.7661 52.243 39.1 52.1329 37.3874C52.0082 35.4424 51.8079 35.0087 51.0337 35.0087C50.2595 35.0087 50.0592 35.4424 49.9345 37.3874C49.8243 39.1 49.5714 39.7661 49.0306 39.7661C48.4898 39.7661 48.2369 39.1 48.1267 37.3874C48.002 35.4424 47.8017 35.0087 47.0275 35.0087C46.2533 35.0087 46.053 35.4424 45.9283 37.3874C45.8181 39.1 45.5652 39.7661 45.0244 39.7661C44.4836 39.7661 44.2307 39.1 44.1205 37.3874C43.9958 35.4424 43.7955 35.0087 43.0213 35.0087C42.2471 35.0087 42.0468 35.4424 41.9221 37.3874C41.812 39.1 41.5591 39.7661 41.0182 39.7661C40.4223 39.7661 40.237 38.9027 40.1208 35.5861C40.0282 32.935 40.188 31.1493 40.5575 30.7036C41.3958 29.694 52.6592 29.694 53.4975 30.7036ZM38.0136 34.0072C38.0136 34.9421 37.6796 35.0087 33.0059 35.0087C28.3322 35.0087 27.9982 34.9421 27.9982 34.0072C27.9982 33.0722 28.3322 33.0056 33.0059 33.0056C37.6796 33.0056 38.0136 33.0722 38.0136 34.0072ZM2.35613 37.5627L0 40.0139L2.48133 42.4953L4.96265 44.9766L7.44247 42.4963L9.9228 40.0164L7.41894 37.5126C6.04181 36.1355 4.86951 35.0318 4.81342 35.0603C4.75783 35.0883 3.65213 36.2146 2.35613 37.5627ZM38.0136 38.5141C38.0136 41.4461 39.1504 41.9109 45.9734 41.7701C49.3175 41.701 52.1324 41.7852 52.2285 41.9574C52.3547 42.1828 51.3171 52.8222 51.0627 53.9129C51.0467 53.982 47.7942 54.0381 43.8351 54.0381H36.6365L36.3235 52.4731C36.1512 51.6123 36.0105 50.08 36.0105 49.0679C36.0105 46.6422 35.2899 46.0257 32.454 46.0257H30.0994L29.7739 42.8959C29.5946 41.1747 29.3292 39.1466 29.184 38.3889L28.9201 37.0118H33.4671H38.0136V38.5141ZM5.98523 39.2903C6.51705 39.9318 6.4845 40.2117 5.79593 40.8998C5.01874 41.6775 4.90656 41.6775 4.12937 40.8998C3.4408 40.2117 3.40825 39.9318 3.94007 39.2903C4.29462 38.8637 4.75483 38.5141 4.96265 38.5141C5.17047 38.5141 5.63068 38.8637 5.98523 39.2903ZM47.0275 44.0226C47.0275 44.6901 47.3615 45.0242 48.029 45.0242C48.6966 45.0242 49.0306 44.6901 49.0306 44.0226C49.0306 43.3551 48.6966 43.0211 48.029 43.0211C47.3615 43.0211 47.0275 43.3551 47.0275 44.0226ZM47.0275 49.5311C47.0275 51.701 47.1612 52.035 48.029 52.035C48.8969 52.035 49.0306 51.701 49.0306 49.5311C49.0306 47.3613 48.8969 47.0272 48.029 47.0272C47.1612 47.0272 47.0275 47.3613 47.0275 49.5311ZM34.0074 49.0303C34.0074 50.0063 33.6734 50.0319 20.9874 50.0319C8.3013 50.0319 7.96728 50.0063 7.96728 49.0303C7.96728 48.0543 8.3013 48.0288 20.9874 48.0288C33.6734 48.0288 34.0074 48.0543 34.0074 49.0303ZM9.4696 52.4977C9.4696 52.7521 9.20569 54.1042 8.88269 55.5023C8.44101 57.4168 8.06994 58.0442 7.38038 58.0442C6.30121 58.0442 6.28669 57.892 7.05187 54.5769C7.49355 52.6624 7.86462 52.035 8.55419 52.035C9.05746 52.035 9.4696 52.2433 9.4696 52.4977ZM13.4758 52.4977C13.4758 52.7521 13.2119 54.1042 12.8889 55.5023C12.4472 57.4168 12.0761 58.0442 11.3866 58.0442C10.3074 58.0442 10.2929 57.892 11.058 54.5769C11.4997 52.6624 11.8708 52.035 12.5604 52.035C13.0636 52.035 13.4758 52.2433 13.4758 52.4977ZM17.6682 53.9129C17.1534 57.7608 17.0197 58.0442 15.7197 58.0442C14.291 58.0442 14.2785 57.9791 15.0642 54.5769C15.557 52.4421 15.8324 52.035 16.7854 52.035C17.807 52.035 17.8946 52.2218 17.6682 53.9129ZM22.1972 53.1617C22.3224 53.7812 22.5377 55.1337 22.676 56.1663L22.9273 58.0442H20.9874H19.0474L19.2988 56.1663C19.788 52.5087 19.9818 52.035 20.9874 52.035C21.6048 52.035 22.0545 52.4536 22.1972 53.1617ZM26.9105 54.5769C27.6962 57.9791 27.6837 58.0442 26.255 58.0442C24.955 58.0442 24.8213 57.7608 24.3065 53.9129C24.0801 52.2218 24.1678 52.035 25.1893 52.035C26.1423 52.035 26.4177 52.4421 26.9105 54.5769ZM30.9167 54.5769C31.6818 57.892 31.6673 58.0442 30.5882 58.0442C29.8986 58.0442 29.5275 57.4168 29.0858 55.5023C28.3207 52.1872 28.3352 52.035 29.4143 52.035C30.1039 52.035 30.475 52.6624 30.9167 54.5769ZM34.9228 54.5769C35.688 57.892 35.6735 58.0442 34.5943 58.0442C33.9048 58.0442 33.5337 57.4168 33.092 55.5023C32.3268 52.1872 32.3414 52.035 33.4205 52.035C34.1101 52.035 34.4812 52.6624 34.9228 54.5769ZM51.0337 57.0427C51.0337 57.9947 50.6997 58.0442 44.2733 58.0442C37.8468 58.0442 37.5128 57.9947 37.5128 57.0427C37.5128 56.0907 37.8468 56.0411 44.2733 56.0411C50.6997 56.0411 51.0337 56.0907 51.0337 57.0427Z" />
</svg>
