<svg width="70" height="56" viewBox="0 0 70 56" xmlns="http://www.w3.org/2000/svg">
	<path
		d="M14.4375 40.25H10.0625C9.33844 40.25 8.75 40.8373 8.75 41.5625V45.9375C8.75 46.6627 9.33844 47.25 10.0625 47.25H14.4375C15.1616 47.25 15.75 46.6627 15.75 45.9375V41.5625C15.75 40.8373 15.1616 40.25 14.4375 40.25ZM14.4375 29.75H10.0625C9.33844 29.75 8.75 30.3373 8.75 31.0625V35.4375C8.75 36.1627 9.33844 36.75 10.0625 36.75H14.4375C15.1616 36.75 15.75 36.1627 15.75 35.4375V31.0625C15.75 30.3373 15.1616 29.75 14.4375 29.75ZM14.4375 19.25H10.0625C9.33844 19.25 8.75 19.8373 8.75 20.5625V24.9375C8.75 25.6627 9.33844 26.25 10.0625 26.25H14.4375C15.1616 26.25 15.75 25.6627 15.75 24.9375V20.5625C15.75 19.8373 15.1616 19.25 14.4375 19.25ZM24.9375 40.25H20.5625C19.8384 40.25 19.25 40.8373 19.25 41.5625V45.9375C19.25 46.6627 19.8384 47.25 20.5625 47.25H24.9375C25.6616 47.25 26.25 46.6627 26.25 45.9375V41.5625C26.25 40.8373 25.6616 40.25 24.9375 40.25ZM24.9375 29.75H20.5625C19.8384 29.75 19.25 30.3373 19.25 31.0625V35.4375C19.25 36.1627 19.8384 36.75 20.5625 36.75H24.9375C25.6616 36.75 26.25 36.1627 26.25 35.4375V31.0625C26.25 30.3373 25.6616 29.75 24.9375 29.75ZM24.9375 19.25H20.5625C19.8384 19.25 19.25 19.8373 19.25 20.5625V24.9375C19.25 25.6627 19.8384 26.25 20.5625 26.25H24.9375C25.6616 26.25 26.25 25.6627 26.25 24.9375V20.5625C26.25 19.8373 25.6616 19.25 24.9375 19.25ZM45.9375 29.75H41.5625C40.8384 29.75 40.25 30.3373 40.25 31.0625V35.4375C40.25 36.1627 40.8384 36.75 41.5625 36.75H45.9375C46.6616 36.75 47.25 36.1627 47.25 35.4375V31.0625C47.25 30.3373 46.6616 29.75 45.9375 29.75ZM45.9375 19.25H41.5625C40.8384 19.25 40.25 19.8373 40.25 20.5625V24.9375C40.25 25.6627 40.8384 26.25 41.5625 26.25H45.9375C46.6616 26.25 47.25 25.6627 47.25 24.9375V20.5625C47.25 19.8373 46.6616 19.25 45.9375 19.25ZM45.9375 8.75H41.5625C40.8384 8.75 40.25 9.33734 40.25 10.0625V14.4375C40.25 15.1627 40.8384 15.75 41.5625 15.75H45.9375C46.6616 15.75 47.25 15.1627 47.25 14.4375V10.0625C47.25 9.33734 46.6616 8.75 45.9375 8.75ZM59.9375 40.25H55.5625C54.8384 40.25 54.25 40.8373 54.25 41.5625V45.9375C54.25 46.6627 54.8384 47.25 55.5625 47.25H59.9375C60.6616 47.25 61.25 46.6627 61.25 45.9375V41.5625C61.25 40.8373 60.6616 40.25 59.9375 40.25ZM59.9375 29.75H55.5625C54.8384 29.75 54.25 30.3373 54.25 31.0625V35.4375C54.25 36.1627 54.8384 36.75 55.5625 36.75H59.9375C60.6616 36.75 61.25 36.1627 61.25 35.4375V31.0625C61.25 30.3373 60.6616 29.75 59.9375 29.75ZM67.375 21H56V2.625C56 1.17469 54.8242 0 53.375 0H34.125C32.6758 0 31.5 1.17469 31.5 2.625V10.5H24.5V0.875C24.5 0.391562 24.1084 0 23.625 0H21.875C21.3916 0 21 0.391562 21 0.875V10.5H14V0.875C14 0.391562 13.6084 0 13.125 0H11.375C10.8916 0 10.5 0.391562 10.5 0.875V10.5H2.625C1.17578 10.5 0 11.6747 0 13.125V55.125C0 55.6084 0.391562 56 0.875 56H2.625C3.10844 56 3.5 55.6084 3.5 55.125V14H35V3.5H52.5V24.5H66.5V55.125C66.5 55.6084 66.8916 56 67.375 56H69.125C69.6084 56 70 55.6084 70 55.125V23.625C70 22.1747 68.8242 21 67.375 21Z" />
</svg>
