<svg width="70" height="78" viewBox="0 0 70 78" xmlns="http://www.w3.org/2000/svg">
	<g filter="url(#filter0_d_228_2805)">
		<path
			d="M55.2427 9.74251L46.8447 1.20912C46.7137 1.0742 46.5343 1 46.348 1H12.5423C11.0104 1 9.76826 2.18726 9.76826 3.6376V5.59387H7.78092C6.249 5.60061 5 6.78112 5 8.23821V63.0206C5 64.4777 6.249 65.6582 7.78092 65.6582L47.5418 65.6919C47.9213 65.6919 48.2318 65.3883 48.2318 65.0173C48.2318 64.6463 47.9213 64.3428 47.5418 64.3428L7.78092 64.309C7.00805 64.309 6.3801 63.7288 6.3801 63.0206V8.23821C6.3801 7.5299 7.00805 6.94977 7.78092 6.94977H9.76826V58.4267C9.76826 59.8838 11.0173 61.0643 12.5492 61.0643H44.6228C45.0024 61.0643 45.3129 60.7607 45.3129 60.3897C45.3129 60.0187 45.0024 59.7152 44.6228 59.7152H12.5423C11.7694 59.7152 11.1415 59.135 11.1415 58.4267V3.6376C11.1415 2.92929 11.7694 2.34916 12.5423 2.34916H44.9472V9.86393C44.9333 10.0596 44.9265 10.7072 45.4026 11.2333C45.6648 11.5166 46.1548 11.8607 47.038 11.8607H54.0489V46.8645L54.0213 49.0906C54.0144 49.4616 54.325 49.7652 54.7045 49.7719C55.084 49.7786 55.3945 49.475 55.4015 49.104L55.4291 46.8779V10.208C55.4291 10.0326 55.36 9.87069 55.2427 9.74251ZM54.0489 10.5115H47.0449C46.8447 10.5115 46.5757 10.4845 46.4446 10.3429C46.3272 10.2147 46.3272 10.0056 46.3272 9.96512C46.3342 9.93814 46.3342 9.92464 46.3342 9.89092V2.63248L54.0559 10.4845V10.5115H54.0489Z" />
		<path
			d="M41.6627 51.3842H17.8698C17.4902 51.3842 17.1797 51.0806 17.1797 50.7095C17.1797 50.3385 17.4902 50.035 17.8698 50.035H41.6697C42.0492 50.035 42.3597 50.3385 42.3597 50.7095C42.3597 51.0806 42.0422 51.3842 41.6627 51.3842Z" />
		<path
			d="M41.6627 43.505H17.8698C17.4902 43.505 17.1797 43.2015 17.1797 42.8305C17.1797 42.4595 17.4902 42.1559 17.8698 42.1559H41.6697C42.0492 42.1559 42.3597 42.4595 42.3597 42.8305C42.3597 43.2015 42.0422 43.505 41.6627 43.505Z" />
		<path
			d="M41.6627 35.626H17.8698C17.4902 35.626 17.1797 35.3225 17.1797 34.9515C17.1797 34.5805 17.4902 34.2769 17.8698 34.2769H41.6697C42.0492 34.2769 42.3597 34.5805 42.3597 34.9515C42.3597 35.3225 42.0422 35.626 41.6627 35.626Z" />
		<path
			d="M41.6627 27.747H17.8698C17.4902 27.747 17.1797 27.4434 17.1797 27.0724C17.1797 26.7014 17.4902 26.3979 17.8698 26.3979H41.6697C42.0492 26.3979 42.3597 26.7014 42.3597 27.0724C42.3597 27.4434 42.0422 27.747 41.6627 27.747Z" />
		<path
			d="M41.6627 19.868H17.8698C17.4902 19.868 17.1797 19.5644 17.1797 19.1934C17.1797 18.8223 17.4902 18.5187 17.8698 18.5187H41.6697C42.0492 18.5187 42.3597 18.8223 42.3597 19.1934C42.3597 19.5644 42.0422 19.868 41.6627 19.868Z" />
		<path
			d="M41.6627 11.9889H17.8698C17.4902 11.9889 17.1797 11.6853 17.1797 11.3143C17.1797 10.9433 17.4902 10.6397 17.8698 10.6397H41.6697C42.0492 10.6397 42.3597 10.9433 42.3597 11.3143C42.3597 11.6853 42.0422 11.9889 41.6627 11.9889Z" />
		<path
			d="M53.6972 63.8638C53.5178 63.8638 53.3453 63.7964 53.2072 63.6682L49.8605 60.3965C49.5914 60.1335 49.5914 59.7085 49.8605 59.4454C50.1297 59.1823 50.5644 59.1823 50.8334 59.4454L54.1802 62.7171C54.4494 62.9801 54.4494 63.4052 54.1802 63.6682C54.0491 63.8031 53.8766 63.8638 53.6972 63.8638Z" />
		<path
			d="M53.6832 63.8706C53.5659 63.8706 53.4486 63.8436 53.3382 63.7829C53.007 63.5941 52.8966 63.1826 53.0829 62.8588L58.5895 53.5293C58.7828 53.2055 59.2036 53.0976 59.5348 53.2798C59.8661 53.4686 59.9764 53.8801 59.7902 54.2039L54.2836 63.5333C54.1525 63.7492 53.9248 63.8706 53.6832 63.8706Z" />
		<path
			d="M54.7733 49.8798C57.1334 49.8798 59.3554 50.777 61.0252 52.4095C62.6952 54.0419 63.613 56.2141 63.613 58.5211C63.613 60.8282 62.6952 63.0003 61.0252 64.6328C59.3554 66.2652 57.1334 67.1625 54.7733 67.1625C52.4134 67.1625 50.1914 66.2652 48.5216 64.6328C46.8516 63.0003 45.9339 60.8282 45.9339 58.5211C45.9339 56.2141 46.8516 54.0419 48.5216 52.4095C50.1846 50.7838 52.4065 49.8798 54.7733 49.8798ZM54.7733 48.5306C49.1288 48.5306 44.5469 53.0031 44.5469 58.5279C44.5469 64.0459 49.1218 68.5251 54.7733 68.5251C60.418 68.5251 64.9999 64.0526 64.9999 58.5279C64.9999 53.0099 60.418 48.5306 54.7733 48.5306Z" />
	</g>
	<defs>
		<filter id="filter0_d_228_2805" x="0.5" y="0.5" width="69" height="76.5251" filterUnits="userSpaceOnUse"
			color-interpolation-filters="sRGB">
			<feFlood flood-opacity="0" result="BackgroundImageFix" />
			<feColorMatrix in="SourceAlpha" type="matrix" values="0 0 0 0 0 0 0 0 0 0 0 0 0 0 0 0 0 0 127 0"
				result="hardAlpha" />
			<feOffset dy="4" />
			<feGaussianBlur stdDeviation="2" />
			<feComposite in2="hardAlpha" operator="out" />
			<feColorMatrix type="matrix" values="0 0 0 0 0 0 0 0 0 0 0 0 0 0 0 0 0 0 0.25 0" />
			<feBlend mode="normal" in2="BackgroundImageFix" result="effect1_dropShadow_228_2805" />
			<feBlend mode="normal" in="SourceGraphic" in2="effect1_dropShadow_228_2805" result="shape" />
		</filter>
	</defs>
</svg>
