<svg width="60" height="52" viewBox="0 0 60 52" xmlns="http://www.w3.org/2000/svg">
	<path
		d="M35.0463 4.84776C28.3736 7.50994 17.9867 11.6499 11.9643 14.0477C5.27134 16.7126 0.873963 18.5248 0.652653 18.7095C0.453614 18.8756 0.226559 19.1236 0.148257 19.2607C0.0386563 19.4526 0.00501423 23.0868 0.00173208 35.0767C-0.00272226 52.0826 -0.0408186 51.1459 0.666133 51.4372C0.911005 51.5381 7.35586 51.5645 26.1185 51.5416L51.2429 51.5109L51.5258 51.182L51.8087 50.8531V42.2623V33.6715L55.6269 32.1654C59.8597 30.4958 60.0958 30.3532 59.9791 29.538C59.9464 29.3092 57.3549 22.6866 54.2205 14.8212C49.9596 4.12944 48.4464 0.453784 48.2244 0.256621C48.0417 0.0945062 47.7831 -0.00430985 47.5529 0.0001445C47.347 0.00412997 41.719 2.18559 35.0463 4.84776ZM52.0258 15.7023C54.8614 22.8253 57.199 28.7222 57.2205 28.8067C57.2464 28.909 56.4337 29.2933 54.7978 29.9529C53.4439 30.4987 52.2176 30.9759 52.0724 31.0134L51.8087 31.0815V25.1987V19.3161L51.4661 18.9734C51.2776 18.7849 51.0193 18.6308 50.8922 18.6308C50.6992 18.6308 50.4622 18.1319 49.4579 15.6124C47.9631 11.8619 47.8099 11.5491 47.3902 11.3881C47.2094 11.3188 46.5074 11.2374 45.8305 11.2073C43.8364 11.1185 42.4427 10.475 40.9314 8.94517C40.3093 8.31547 40.1303 8.19825 39.7908 8.19825C39.1988 8.19825 14.8035 17.943 14.4112 18.3361L14.1138 18.6343L10.5429 18.6032L6.9722 18.5722L7.90995 18.1995C8.42572 17.9945 17.392 14.4241 27.8349 10.2653C38.2779 6.10647 46.8328 2.71448 46.8461 2.72761C46.8592 2.74074 49.19 8.57933 52.0258 15.7023ZM39.744 11.0828C40.9096 12.337 43.2941 13.4187 45.2422 13.5772L46.1235 13.649L47.1061 16.0854C47.6465 17.4253 48.0639 18.5464 48.0336 18.5768C48.0034 18.607 41.627 18.6184 33.8639 18.602L19.7491 18.5722L29.4784 14.6818C34.8294 12.5422 39.2643 10.7882 39.3337 10.7842C39.403 10.7804 39.5876 10.9147 39.744 11.0828ZM49.4643 35.1002V49.2251H25.9032H2.34202V35.1002V20.9752H25.9032H49.4643V35.1002ZM10.8991 23.4707C10.6068 23.6178 10.5375 23.733 9.84724 25.2201C9.11661 26.7941 7.73998 28.0642 6.05741 28.7167C4.65125 29.262 4.75042 28.8043 4.7122 34.9283C4.67516 40.8827 4.67563 40.8869 5.47343 41.2053C5.71748 41.3027 6.31037 41.5727 6.79097 41.8053C8.31741 42.5443 9.75804 44.2536 10.3108 45.9813C10.4023 46.2674 10.5881 46.5115 10.8232 46.655C11.1818 46.8736 11.6073 46.8799 25.9821 46.8803L40.7721 46.8807L41.1081 46.598C41.3154 46.4235 41.5229 46.0652 41.65 45.6619C41.9372 44.751 42.9138 43.3415 43.7265 42.6652C44.1027 42.3522 44.7695 41.9293 45.2084 41.7253C46.7092 41.0281 46.8215 40.9608 46.9707 40.6681C47.0867 40.4406 47.1136 39.1651 47.0907 34.963L47.0613 29.551L46.7772 29.2485C46.6208 29.0822 46.4348 28.9461 46.3635 28.9461C46.0832 28.9461 44.4741 28.0923 43.9087 27.6436C42.8556 26.8078 41.8185 25.3026 41.5451 24.2129C41.5025 24.0435 41.3112 23.7732 41.1199 23.6123L40.7721 23.3196L25.9821 23.3213C14.3289 23.3226 11.13 23.3544 10.8991 23.4707ZM39.9962 26.5143C40.8537 28.181 42.2585 29.5858 43.9252 30.4433L44.7745 30.8802L44.7751 35.1216L44.7755 39.3628L44.5118 39.4407C43.9537 39.6054 42.6256 40.479 41.8961 41.1615C41.1463 41.8628 40.0335 43.4076 39.7393 44.1554L39.5894 44.5363H25.9496H12.3097L12.0006 43.9209C11.0866 42.1007 9.47917 40.494 7.64621 39.5683L7.03081 39.2575L7.03128 35.0689L7.03186 30.8802L7.88487 30.4423C9.54974 29.5877 11.1069 28.0346 11.8554 26.4823L12.2471 25.67L25.9032 25.6675L39.5592 25.665L39.9962 26.5143ZM24.3793 28.1912C21.8585 28.7345 19.7076 30.8579 19.0476 33.4544C18.6532 35.0057 18.9443 37.063 19.7679 38.5463C20.3361 39.5696 21.5274 40.732 22.5624 41.2731C23.7947 41.9173 24.6027 42.117 25.9618 42.1133C26.9518 42.1106 27.2896 42.0562 28.1355 41.763C29.9162 41.146 31.2996 39.9748 32.139 38.3739C32.7058 37.2927 32.9363 36.3399 32.9363 35.0786C32.9363 33.0632 32.3343 31.6214 30.8784 30.1502C30.1425 29.4066 29.7246 29.0911 29.0531 28.7722C27.5242 28.0461 25.9566 27.8513 24.3793 28.1912ZM26.8645 30.4828C28.2797 30.7789 29.5356 31.779 30.2057 33.1435C30.5012 33.7453 30.5333 33.9312 30.5333 35.0415C30.5333 36.1826 30.506 36.33 30.1591 37.0625C29.2542 38.9725 27.3194 40.0135 25.225 39.7172C22.8134 39.3759 21.0632 37.1803 21.2485 34.7289C21.4002 32.7239 22.7818 31.0622 24.731 30.5407C25.524 30.3285 26.0581 30.314 26.8645 30.4828ZM12.1867 33.547C11.5506 33.8695 11.2311 34.3879 11.2311 35.098C11.2311 36.0996 11.9386 36.7998 12.9504 36.7998C13.8735 36.7998 14.5336 36.2262 14.704 35.276C14.8168 34.6471 14.3794 33.8812 13.7168 33.547C13.4291 33.4019 13.0843 33.2832 12.9504 33.2832C12.8165 33.2832 12.4728 33.4019 12.1867 33.547ZM38.1415 33.5009C37.4334 33.8305 37.1138 34.4114 37.1829 35.2433C37.2315 35.8301 37.2885 35.9475 37.7197 36.3498C38.1534 36.7544 38.2648 36.7998 38.8221 36.7994C39.6456 36.7988 40.1475 36.4885 40.4571 35.7883C41.1169 34.297 39.6159 32.8144 38.1415 33.5009ZM13.2633 34.602C13.5439 34.8281 13.5944 35.1075 13.4038 35.3797C13.2129 35.6523 12.7837 35.7071 12.5636 35.487C12.3527 35.2761 12.3924 34.7193 12.628 34.582C12.9022 34.4224 13.0459 34.4268 13.2633 34.602ZM39.2662 34.6899C39.5485 34.9721 39.5633 35.1965 39.3165 35.4435C39.0979 35.6621 38.6664 35.6843 38.4691 35.487C38.2453 35.2632 38.3056 34.8364 38.589 34.638C38.9243 34.403 38.9839 34.4076 39.2662 34.6899Z" />
</svg>
