<svg width="70" height="40" viewBox="0 0 70 40" xmlns="http://www.w3.org/2000/svg">
	<path
		d="M31.757 0.499205C29.5759 1.36344 27.9773 2.8356 26.9136 4.95911C26.0948 6.59369 25.972 7.1221 25.9812 8.96984C25.9984 12.5311 27.9091 15.4845 31.2283 17.0804C32.5942 17.7374 33.1791 17.8519 34.9983 17.8178C37.6652 17.7679 37.6669 17.7673 39.6478 16.6685C42.7361 14.9555 44.3576 11.924 44.1175 8.31257C43.8998 5.03496 42.1337 2.38558 39.1598 0.874788C37.2001 -0.120845 33.7615 -0.295103 31.757 0.499205ZM36.5713 3.94036C38.9475 4.58889 40.7549 7.42578 40.3065 9.80363C39.8501 12.2249 37.6531 14.0588 35.2086 14.0588C33.7257 14.0588 32.3024 13.6249 32.5411 13.2453C32.6277 13.1075 32.4929 13.0122 32.2413 13.0333C31.9897 13.0545 31.3861 12.5943 30.8995 12.0103C30.1927 11.1613 29.993 10.6242 29.9032 9.33161C29.7408 6.99211 30.6184 5.44269 32.6955 4.40138C34.4076 3.54306 34.9005 3.48441 36.5713 3.94036ZM11.5371 5.10827C10.1021 5.56027 8.14438 7.40886 7.58984 8.83534C6.86688 10.6963 7.105 13.3643 8.13033 14.887C10.1985 17.9587 14.4604 18.8295 17.5178 16.8044C19.2322 15.6689 20.1829 14.0126 20.3181 11.926C20.4747 9.50756 19.8614 7.92712 18.2123 6.50036C16.3246 4.86719 13.9048 4.36247 11.5371 5.10827ZM52.3566 5.40632C50.6407 6.2229 49.8644 7.00424 49.0815 8.70141C46.5055 14.2858 52.6569 19.9785 58.2242 17.1627C62.1304 15.1873 63.0878 9.94715 60.0959 6.91908C58.689 5.49542 57.5595 4.98223 55.5252 4.84238C54.1132 4.74538 53.5245 4.85027 52.3566 5.40632ZM15.8828 9.61443C16.592 10.356 16.6824 10.6312 16.5458 11.6311C16.2756 13.613 14.1084 14.709 12.3203 13.7684C10.9186 13.0313 10.5528 10.482 11.702 9.45991C13.0757 8.23813 14.6211 8.29537 15.8828 9.61443ZM57.1619 9.5789C58.2595 10.7243 58.2406 12.1256 57.1123 13.2346C54.9044 15.4047 51.4216 13.0832 52.6279 10.2455C53.1079 9.11647 54.4987 8.36305 55.6557 8.60554C56.0502 8.68816 56.7281 9.12634 57.1619 9.5789ZM16.2862 21.8217C16.1998 21.8962 13.3674 22.2813 12.4795 22.3394C12.1639 22.36 11.8412 22.4468 11.7623 22.5323C11.6834 22.618 11.0155 22.9101 10.2782 23.1819C8.43615 23.8606 5.61836 25.767 4.35205 27.1915C1.93533 29.9094 0 34.4286 0 37.3532V38.5902H9.03688H18.0738V39.2951V40H36.291H54.5082V39.2951V38.5902H62.2541H70V37.2914C70 32.2907 65.8763 25.9985 61.0827 23.685C59.0459 22.7017 55.9636 21.9664 53.8475 21.9588C51.9119 21.952 48.9079 22.6772 47.0492 23.6001L45.4713 24.3837L43.75 23.5993C41.2085 22.4409 37.9159 21.8488 35.0975 22.0433C32.5334 22.2204 28.8632 23.2888 27.2461 24.3293L26.2342 24.9806L24.8075 24.1742C24.0232 23.7307 22.7913 23.174 22.0707 22.9372C20.8181 22.5258 16.4474 21.6827 16.2862 21.8217ZM18.5927 25.8984C18.9571 25.9001 19.1829 26.0166 19.0945 26.1573C19.0059 26.2977 19.1754 26.3507 19.4709 26.2749C19.9345 26.1556 22.9508 27.2017 22.9508 27.4814C22.9508 27.5367 22.4356 28.2506 21.8061 29.068C21.1764 29.8852 20.2406 31.4738 19.7262 32.598L18.791 34.642L11.5543 34.6423L4.31762 34.6426L4.59102 33.9357C5.34639 31.9828 5.93508 31.1219 7.77746 29.275C10.0054 27.0424 14.1578 25.4552 16.9262 25.778C17.4785 25.8426 18.2284 25.8967 18.5927 25.8984ZM39.7336 26.234C43.9852 27.123 48.7381 31.4451 49.9203 35.4967L50.1648 36.3344H36.2517H22.3383L22.5354 35.7C23.3728 33.0029 25.8027 29.8 28.2301 28.1931C31.6782 25.9103 35.2654 25.2992 39.7336 26.234ZM55.6557 25.9185C60.0419 26.6115 63.4481 29.332 65.2552 33.5852L65.7045 34.6426H59.7398H53.7752L52.951 32.7833C52.498 31.7609 51.5748 30.1866 50.8998 29.2854C50.2247 28.3843 49.76 27.5511 49.867 27.4338C49.974 27.3167 49.9146 27.3035 49.7353 27.4041C49.556 27.5048 49.2599 27.4104 49.0775 27.1941C48.8066 26.8735 48.9988 26.7207 50.1206 26.3651C50.8771 26.1251 51.8832 25.8784 52.3566 25.8167C52.8299 25.7546 53.3463 25.6861 53.5041 25.6638C53.6619 25.6418 54.6301 25.7563 55.6557 25.9185Z" />
</svg>
