<svg width="60" height="53" viewBox="0 0 60 53" xmlns="http://www.w3.org/2000/svg">
	<path
		d="M56.25 22.752V5.625C56.25 4.13316 55.6574 2.70242 54.6025 1.64752C53.5476 0.592632 52.1168 0 50.625 0H9.375C7.88316 0 6.45242 0.592632 5.39752 1.64752C4.34263 2.70242 3.75 4.13316 3.75 5.625V22.752C1.61016 23.3203 0 25.1824 0 27.5004V51.5625C0 51.8111 0.098772 52.0496 0.274587 52.2254C0.450403 52.4012 0.68886 52.5 0.9375 52.5H2.8125C3.06114 52.5 3.2996 52.4012 3.47541 52.2254C3.65123 52.0496 3.75 51.8111 3.75 51.5625V45H56.25V51.5625C56.25 51.8111 56.3488 52.0496 56.5246 52.2254C56.7004 52.4012 56.9389 52.5 57.1875 52.5H59.0625C59.3111 52.5 59.5496 52.4012 59.7254 52.2254C59.9012 52.0496 60 51.8111 60 51.5625V27.5004C60 25.1824 58.3898 23.3203 56.25 22.752ZM7.5 18.75C7.5 17.7554 7.89509 16.8016 8.59835 16.0984C9.30161 15.3951 10.2554 15 11.25 15H24.375C25.3696 15 26.3234 15.3951 27.0266 16.0984C27.7299 16.8016 28.125 17.7554 28.125 18.75V22.5H7.5V18.75ZM52.5 22.5H31.875V18.75C31.875 17.7554 32.2701 16.8016 32.9734 16.0984C33.6766 15.3951 34.6304 15 35.625 15H48.75C49.7446 15 50.6984 15.3951 51.4016 16.0984C52.1049 16.8016 52.5 17.7554 52.5 18.75V22.5ZM9.375 3.75H50.625C51.1223 3.75 51.5992 3.94754 51.9508 4.29918C52.3025 4.65081 52.5 5.12772 52.5 5.625V12.293C51.3652 11.6176 50.0706 11.2575 48.75 11.25H35.625C34.5604 11.2499 33.5081 11.4767 32.5381 11.9154C31.5682 12.3541 30.7029 12.9946 30 13.7941C29.2971 12.9946 28.4318 12.3541 27.4619 11.9154C26.4919 11.4767 25.4396 11.2499 24.375 11.25H11.25C9.92942 11.2575 8.63481 11.6176 7.5 12.293V5.625C7.5 5.12772 7.69754 4.65081 8.04918 4.29918C8.40081 3.94754 8.87772 3.75 9.375 3.75ZM3.75 41.25V27.5004C3.75062 27.169 3.88256 26.8513 4.11692 26.6169C4.35127 26.3826 4.66896 26.2506 5.00039 26.25H54.9996C55.331 26.2506 55.6487 26.3826 55.8831 26.6169C56.1174 26.8513 56.2494 27.169 56.25 27.5004V41.25H3.75Z" />
</svg>
