<svg width="292" height="284" viewBox="0 0 292 284" fill="none" xmlns="http://www.w3.org/2000/svg">
	<path
		d="M10.0021 162.09C10.0021 162.09 8.66318 89.575 98.8209 101.712C175.161 111.981 148.093 115.93 195.692 113.17C206.813 112.529 250.302 97.4463 267.839 110.354C289.876 126.571 311.597 182.934 256.346 241.221C191.266 309.869 49.4741 241.843 49.4741 241.843C49.4741 241.843 7.79841 215.85 10.0021 162.09Z"
		fill="#E0E0E0" fill-opacity="0.4" />
	<path
		d="M147.973 283.263C208.601 283.263 257.75 270.644 257.75 255.077C257.75 239.51 208.601 226.891 147.973 226.891C87.3444 226.891 38.1953 239.51 38.1953 255.077C38.1953 270.644 87.3444 283.263 147.973 283.263Z"
		fill="#405394" />
	<path
		d="M147.972 274.918C214.332 274.918 268.127 262.299 268.127 246.732C268.127 231.165 214.332 218.546 147.972 218.546C81.6129 218.546 27.8179 231.165 27.8179 246.732C27.8179 262.299 81.6129 274.918 147.972 274.918Z"
		fill="#EC363F" />
	<path
		d="M211.304 218.332C211.304 245.486 172.827 242.866 125.359 242.866C77.8901 242.866 39.4131 245.477 39.4131 218.332C39.4131 191.186 77.8901 169.171 125.359 169.171C172.818 169.18 211.304 191.186 211.304 218.332Z"
		fill="#F0C7A9" />
	<mask id="mask0_205_5635" style="mask-type:alpha" maskUnits="userSpaceOnUse" x="39" y="169" width="173" height="74">
		<path
			d="M211.304 218.332C211.304 245.486 172.827 242.866 125.359 242.866C77.8901 242.866 39.4131 245.477 39.4131 218.332C39.4131 191.186 77.8901 169.171 125.359 169.171C172.818 169.18 211.304 191.186 211.304 218.332Z"
			fill="#FFC5BB" />
	</mask>
	<g mask="url(#mask0_205_5635)">
		<path
			d="M72.2833 206.055H71.2139C69.2334 206.055 67.6248 204.448 67.6248 202.468V161.429C67.6248 159.45 69.2334 157.842 71.2139 157.842H72.2833C74.2639 157.842 75.8725 159.45 75.8725 161.429V202.468C75.8725 204.457 74.2639 206.055 72.2833 206.055Z"
			fill="#F50F0F" />
		<path
			d="M95.9757 199.829H94.9063C92.9258 199.829 91.3171 198.221 91.3171 196.242V155.203C91.3171 153.224 92.9258 151.616 94.9063 151.616H95.9757C97.9562 151.616 99.5648 153.224 99.5648 155.203V196.242C99.5648 198.221 97.9562 199.829 95.9757 199.829Z"
			fill="#F50F0F" />
		<path
			d="M118.813 193.277H117.743C115.763 193.277 114.154 191.669 114.154 189.69V148.651C114.154 146.672 115.763 145.064 117.743 145.064H118.813C120.793 145.064 122.402 146.672 122.402 148.651V189.69C122.402 191.679 120.793 193.277 118.813 193.277Z"
			fill="#F50F0F" />
		<path
			d="M141.938 193.277H140.869C138.888 193.277 137.28 191.669 137.28 189.69V148.651C137.28 146.672 138.888 145.064 140.869 145.064H141.938C143.919 145.064 145.527 146.672 145.527 148.651V189.69C145.527 191.679 143.928 193.277 141.938 193.277Z"
			fill="#F50F0F" />
	</g>
	<path
		d="M197.263 150.669C170.288 150.669 148.418 158.392 148.418 167.918V242.3H184.673L184.868 258.991C188.829 259.353 192.976 259.548 197.263 259.548C224.238 259.548 246.108 251.826 246.108 242.3V167.918C246.108 158.392 224.238 150.669 197.263 150.669Z"
		fill="#FDF0B9" />
	<path
		d="M185.151 184.59V207.878C185.151 207.878 187.773 211.837 191.734 203.129C195.695 194.431 198.066 194.626 198.661 195.621C199.256 196.606 199.349 200.397 201.544 201.801C203.738 203.204 205.644 198.204 207.039 197.805C208.443 197.405 209.336 197.907 210.34 199.607C212.535 203.325 209.252 217.515 215.454 215.554C217.444 214.923 220.503 208.436 219.043 198.316C218.681 195.834 219.648 190.918 220.345 190.918C221.043 190.918 221.545 194.719 223.544 194.217C225.543 193.716 226.547 189.422 228.547 189.822C230.546 190.221 234.302 192.777 235.846 186.727C236.459 184.339 239.946 185.324 240.746 186.43C241.546 187.526 245.702 187.433 246.148 183.632C246.595 179.832 246.148 167.946 246.148 167.946L185.151 184.59Z"
		fill="#EDB82C" />
	<path
		d="M197.263 185.166C224.239 185.166 246.108 177.443 246.108 167.918C246.108 158.392 224.239 150.669 197.263 150.669C170.287 150.669 148.418 158.392 148.418 167.918C148.418 177.443 170.287 185.166 197.263 185.166Z"
		fill="#EDB82C" />
	<path d="M197.277 185.106C220.226 185.106 239.478 179.518 244.715 171.985" stroke="white" stroke-width="2.2294"
		stroke-linecap="round" />
	<mask id="mask1_205_5635" style="mask-type:alpha" maskUnits="userSpaceOnUse" x="148" y="167" width="99" height="93">
		<path
			d="M148.432 242.22V167.837H246.122V242.22C246.122 251.745 224.252 259.468 197.277 259.468C192.991 259.468 188.843 259.273 184.882 258.91L184.687 242.22H148.432Z"
			fill="#C4C4C4" />
	</mask>
	<g mask="url(#mask1_205_5635)">
		<path
			d="M248.515 225.284C248.515 235.274 225.567 243.378 197.271 243.378C168.967 243.378 146.018 235.274 146.018 225.284C146.018 224.085 146.344 222.914 146.976 221.781C151.607 230.089 172.37 236.362 197.271 236.362C222.163 236.362 242.927 230.089 247.557 221.781C248.18 222.914 248.515 224.085 248.515 225.284Z"
			fill="#EDB82C" />
		<path
			d="M248.515 204.44C248.515 206.893 247.139 209.226 244.628 211.363C243.169 212.608 241.318 213.779 239.152 214.876C229.862 219.513 214.576 222.543 197.271 222.543C179.967 222.543 164.662 219.513 155.382 214.876C153.215 213.779 151.365 212.608 149.905 211.363C147.394 209.226 146.018 206.893 146.018 204.44C146.018 203.39 146.279 202.349 146.762 201.345C147.99 203.873 150.705 206.215 154.564 208.278H154.573C157.009 209.579 159.929 210.75 163.202 211.781C172.259 214.634 184.188 216.363 197.271 216.363C210.336 216.363 222.266 214.634 231.322 211.781C234.605 210.75 237.515 209.579 239.951 208.278H239.961C243.819 206.215 246.535 203.873 247.762 201.345C248.255 202.349 248.515 203.39 248.515 204.44Z"
			fill="#EDB82C" />
	</g>
	<mask id="mask2_205_5635" style="mask-type:alpha" maskUnits="userSpaceOnUse" x="148" y="168" width="50" height="91">
		<path d="M148.433 168.077H197.581L184.913 184.749V259L148.433 258.601V168.077Z" fill="#FC9AEA" />
	</mask>
	<g mask="url(#mask2_205_5635)">
		<path d="M148.433 167.918H197.582L184.913 184.59V259.251H148.433V167.918Z" fill="#EDB82C" />
		<path
			d="M191.986 175.278C191.986 175.278 188.946 174.051 187.851 174.414C186.766 174.776 185.596 175.343 184.904 175.278C184.221 175.222 181.32 174.005 180.225 174.339C179.14 174.674 175.061 175.612 174.331 175.278C173.601 174.943 170.158 173.884 169.166 174.283C168.165 174.683 165.807 175.845 164.909 175.352C164.011 174.86 160.194 173.549 159.829 174.832C159.464 176.114 159.829 179.813 159.829 180.621C159.829 181.43 158.781 181.086 158.481 184.209C158.182 187.331 159.679 187.777 159.23 189.561C158.781 191.346 158.098 196.996 158.444 198.929C158.781 200.862 158.219 203.241 158.35 206.363C158.481 209.486 157.434 210.499 158.332 213.482C159.23 216.474 158.042 219.002 157.967 221.53C157.892 224.058 158.64 224.652 158.94 228.072C159.239 231.492 157.742 233.425 157.967 234.615C158.191 235.804 157.695 239.522 157.948 241.455C158.201 243.387 158.154 244.726 157.873 247.105C157.593 249.484 157.873 252.467 157.873 252.467L157.967 258.92H189.24L191.986 175.278Z"
			fill="#FDF0B9" />
		<path
			d="M191.603 187.247C191.603 187.247 184.96 187.08 181.947 188.716C178.934 190.351 177.203 185.881 173.545 187.693C169.877 189.496 168.156 191.643 169.344 196.243C170.532 200.843 171.608 200.955 170.532 204.486C169.456 208.017 166.546 208.872 167.95 212.943C169.353 217.013 166.546 220.545 168.062 224.606C169.568 228.676 168.595 227.979 168.811 230.544C169.026 233.109 171.477 232.765 170.616 239.503C169.765 246.222 167.173 242.579 168.043 247.179C168.904 251.779 170.111 252.104 169.896 254.028C169.681 255.952 169.035 259.056 169.035 259.056H193.333L191.603 187.247Z"
			fill="#F0C7A9" />
	</g>
	<path d="M143.873 153.285H189.145L183.851 159.424" stroke="white" stroke-width="2.2294" stroke-linecap="round"
		stroke-linejoin="round" />
	<path
		d="M177.895 238.11H93.3811C92.628 242.729 93.3811 255.842 93.3811 255.842C93.3811 263.211 112.303 269.187 135.633 269.187C158.972 269.187 177.885 263.211 177.885 255.842C178.481 245.387 177.895 238.11 177.895 238.11Z"
		fill="#EDB82C" />
	<path
		d="M176.853 235.954C180.861 235.741 184.143 239.96 182.786 242.534C181.428 245.108 176.435 247.032 174.789 247.515C171.042 248.621 173.757 254.392 166.672 252.691C163.008 251.808 161.939 254.28 159.912 256.269C157.885 258.258 152.473 256.864 147.396 254.68C142.319 252.496 137.93 258.658 133.02 258.063C128.111 257.468 123.722 255.08 120.505 256.269C117.288 257.459 115.437 256.269 111.541 252.487C107.645 248.705 103.768 253.881 100.216 252.487C96.6636 251.093 98.0212 247.71 94.1251 245.926C90.2291 244.142 86.3516 243.473 86.3516 241.251C86.3516 236.215 94.06 234.96 94.06 234.96L176.853 235.954Z"
		fill="#F50F0F" />
	<path
		d="M177.895 230.211C177.895 245.684 158.973 249.058 135.643 249.058C112.313 249.058 93.3906 245.684 93.3906 230.211C93.3906 214.738 112.313 202.192 135.643 202.192C158.973 202.192 177.895 214.738 177.895 230.211Z"
		fill="#EDB82C" />
	<path
		d="M114.61 210.993C115.334 210.993 115.921 210.698 115.921 210.333C115.921 209.969 115.334 209.673 114.61 209.673C113.886 209.673 113.299 209.969 113.299 210.333C113.299 210.698 113.886 210.993 114.61 210.993Z"
		fill="white" />
	<path
		d="M122.913 216.067C123.637 216.067 124.224 215.771 124.224 215.407C124.224 215.042 123.637 214.747 122.913 214.747C122.189 214.747 121.602 215.042 121.602 215.407C121.602 215.771 122.189 216.067 122.913 216.067Z"
		fill="white" />
	<path
		d="M128.372 210.993C129.096 210.993 129.683 210.698 129.683 210.333C129.683 209.969 129.096 209.673 128.372 209.673C127.648 209.673 127.061 209.969 127.061 210.333C127.061 210.698 127.648 210.993 128.372 210.993Z"
		fill="white" />
	<path
		d="M137.558 206.29C138.282 206.29 138.869 205.995 138.869 205.631C138.869 205.266 138.282 204.971 137.558 204.971C136.834 204.971 136.247 205.266 136.247 205.631C136.247 205.995 136.834 206.29 137.558 206.29Z"
		fill="white" />
	<path
		d="M144.7 212.944C145.424 212.944 146.011 212.649 146.011 212.284C146.011 211.92 145.424 211.625 144.7 211.625C143.976 211.625 143.389 211.92 143.389 212.284C143.389 212.649 143.976 212.944 144.7 212.944Z"
		fill="white" />
	<path
		d="M158.824 212.944C159.548 212.944 160.135 212.649 160.135 212.284C160.135 211.92 159.548 211.625 158.824 211.625C158.1 211.625 157.513 211.92 157.513 212.284C157.513 212.649 158.1 212.944 158.824 212.944Z"
		fill="white" />
	<path
		d="M108.519 222.089C109.243 222.089 109.83 221.793 109.83 221.429C109.83 221.064 109.243 220.769 108.519 220.769C107.795 220.769 107.208 221.064 107.208 221.429C107.208 221.793 107.795 222.089 108.519 222.089Z"
		fill="white" />
	<path
		d="M124.039 228.259C124.763 228.259 125.35 227.964 125.35 227.6C125.35 227.235 124.763 226.94 124.039 226.94C123.315 226.94 122.728 227.235 122.728 227.6C122.728 227.964 123.315 228.259 124.039 228.259Z"
		fill="white" />
	<path
		d="M136.248 219.543C136.972 219.543 137.559 219.247 137.559 218.883C137.559 218.519 136.972 218.223 136.248 218.223C135.524 218.223 134.937 218.519 134.937 218.883C134.937 219.247 135.524 219.543 136.248 219.543Z"
		fill="white" />
	<path
		d="M144.7 226.28C145.424 226.28 146.011 225.985 146.011 225.62C146.011 225.256 145.424 224.96 144.7 224.96C143.976 224.96 143.389 225.256 143.389 225.62C143.389 225.985 143.976 226.28 144.7 226.28Z"
		fill="white" />
	<path
		d="M157.746 223.631C158.47 223.631 159.057 223.336 159.057 222.972C159.057 222.607 158.47 222.312 157.746 222.312C157.022 222.312 156.435 222.607 156.435 222.972C156.435 223.336 157.022 223.631 157.746 223.631Z"
		fill="white" />
	<path d="M140.058 188.649C146.425 189.509 150.383 191.919 150.383 191.919" stroke="white" stroke-width="2"
		stroke-linecap="round" />
	<path
		d="M105.901 27.7684C117.43 22.4943 124.909 14.1403 122.605 9.10937C120.301 4.07838 109.087 4.27549 97.5575 9.54961C86.0282 14.8237 78.5497 23.1777 80.8538 28.2086C83.1578 33.2396 94.372 33.0425 105.901 27.7684Z"
		fill="#EC363F" />
	<path
		d="M104.703 25.1414C110.863 22.3238 114.858 17.8605 113.626 15.1724C112.395 12.4842 106.404 12.5891 100.245 15.4067C94.0858 18.2242 90.0908 22.6875 91.3219 25.3757C92.553 28.0638 98.5441 27.9589 104.703 25.1414Z"
		fill="black" />
	<path d="M113.627 15.1704L91.3145 25.3776L96.5932 36.9037L118.906 26.6966L113.627 15.1704Z" fill="black" />
	<path
		d="M234.941 68.4795L45.8101 150.854C44.0341 143.206 43.095 135.242 43.095 127.064C43.095 69.1764 90.0614 22.246 147.972 22.246C184.19 22.246 216.111 40.5907 234.941 68.4795Z"
		fill="#EC363F" />
	<path
		d="M26.1721 167.991C25.1772 166.234 21.3277 166.402 16.5947 168.13C15.6742 168.465 14.6421 168.177 14.0191 167.415C10.8576 163.484 7.64963 161.355 5.89222 162.341C4.13481 163.335 4.30221 167.182 6.03172 171.913C6.36647 172.833 6.0782 173.864 5.31572 174.487C1.39178 177.646 -0.746888 180.853 0.238748 182.609C1.23368 184.365 5.08323 184.198 9.81614 182.47C10.7367 182.135 11.7688 182.423 12.3918 183.185C15.5533 187.107 18.7613 189.244 20.5187 188.259C22.2761 187.265 22.1087 183.417 20.3792 178.687C20.0445 177.767 20.3327 176.736 21.0952 176.113C25.0284 172.953 27.1671 169.757 26.1721 167.991Z"
		fill="#EDB82C" />
	<path
		d="M286.64 90.2629C287.143 88.3113 284.251 85.765 279.639 83.7205C278.737 83.3209 278.197 82.4009 278.281 81.4251C278.727 76.4068 277.891 72.643 275.938 72.1412C273.985 71.6394 271.437 74.5296 269.392 79.139C268.992 80.0404 268.071 80.5794 267.095 80.4958C262.074 80.0497 258.308 80.8861 257.806 82.8376C257.304 84.7892 260.196 87.3355 264.808 89.38C265.71 89.7796 266.249 90.6996 266.165 91.6754C265.719 96.6937 266.556 100.457 268.508 100.959C270.461 101.461 273.009 98.5709 275.055 93.9615C275.454 93.0601 276.375 92.5211 277.351 92.6047C282.372 93.0508 286.138 92.2144 286.64 90.2629Z"
		fill="#F50F0F" />
	<path
		d="M278.7 221.232C284.538 221.232 289.272 216.501 289.272 210.665C289.272 204.83 284.538 200.099 278.7 200.099C272.861 200.099 268.127 204.83 268.127 210.665C268.127 216.501 272.861 221.232 278.7 221.232Z"
		fill="#405394" />
</svg>
