<svg width="302" height="311" viewBox="0 0 302 311" fill="none" xmlns="http://www.w3.org/2000/svg">
	<path
		d="M74.7917 42.4141C87.8006 7.88235 113.365 1.5808 127.633 1.58985C168.852 1.59891 184.769 15.0621 211.249 45.3476C236.08 73.7499 253.8 69.4674 268.059 80.3683C291.304 98.1503 304.513 159.536 259.48 197.074C195.64 250.302 154.63 253.534 99.4597 236.35C62.2539 224.761 31.0725 193.09 30.3206 158.024C28.8711 90.2734 60.7229 79.7617 74.7917 42.4141Z"
		fill="#E0E0E0" fill-opacity="0.4" />
	<path
		d="M273.059 76.122L272.887 76.0587C271.347 75.4792 270.568 73.768 271.139 72.2288L284.546 36.3752C285.126 34.836 286.838 34.0574 288.378 34.6278L288.55 34.6912C290.091 35.2706 290.87 36.9818 290.299 38.521L276.891 74.3746C276.312 75.9138 274.599 76.7015 273.059 76.122Z"
		fill="#F1CB67" />
	<path
		d="M268.575 71.4685L268.403 71.4142C266.826 70.9615 265.912 69.3137 266.364 67.7292L277.643 28.4441C278.096 26.8687 279.745 25.9543 281.33 26.407L281.502 26.4613C283.078 26.914 283.993 28.5618 283.541 30.1463L272.253 69.4314C271.8 71.0158 270.151 71.9212 268.575 71.4685Z"
		fill="#F1CB67" />
	<path
		d="M266.691 82.2064L266.519 82.143C264.979 81.5635 264.2 79.8523 264.77 78.3132L279.093 40.033C279.672 38.4939 281.385 37.7152 282.925 38.2856L283.097 38.349C284.637 38.9285 285.416 40.6396 284.845 42.1788L270.523 80.459C269.952 82.0072 268.231 82.7858 266.691 82.2064Z"
		fill="#F1CB67" />
	<path
		d="M263.683 67.3488L263.511 67.2945C261.935 66.8418 261.02 65.194 261.473 63.6095L272.751 24.3244C273.204 22.749 274.853 21.8345 276.439 22.2872L276.611 22.3416C278.187 22.7943 279.102 24.4421 278.649 26.0265L267.37 65.3117C266.917 66.8961 265.269 67.8015 263.683 67.3488Z"
		fill="#F1CB67" />
	<path
		d="M259.389 70.2282L259.208 70.201C257.586 69.9294 256.49 68.3902 256.762 66.7696L263.556 26.4704C263.828 24.8497 265.368 23.7542 266.99 24.0258L267.171 24.053C268.793 24.3246 269.889 25.8638 269.617 27.4844L262.823 67.7836C262.551 69.4043 261.011 70.4998 259.389 70.2282Z"
		fill="#F1CB67" />
	<path
		d="M255.811 73.2159L255.63 73.1978C253.99 73.0439 252.794 71.5862 252.948 69.9565L256.834 29.268C256.988 27.6293 258.447 26.4341 260.078 26.5881L260.259 26.6062C261.899 26.7601 263.094 28.2178 262.94 29.8475L259.054 70.5359C258.9 72.1747 257.441 73.3698 255.811 73.2159Z"
		fill="#F1CB67" />
	<path
		d="M263.955 64.9314L263.774 64.9042C262.152 64.6326 261.056 63.0934 261.328 61.4728L268.122 21.1736C268.394 19.553 269.934 18.4575 271.555 18.7291L271.737 18.7562C273.358 19.0279 274.454 20.567 274.183 22.1877L267.388 62.4868C267.107 64.1165 265.576 65.2121 263.955 64.9314Z"
		fill="#F1CB67" />
	<path
		d="M249.995 76.5296L249.814 76.5115C248.174 76.3576 246.978 74.8999 247.132 73.2702L251.019 32.5817C251.173 30.943 252.631 29.7479 254.262 29.9018L254.443 29.9199C256.083 30.0738 257.278 31.5315 257.124 33.1612L253.238 73.8496C253.084 75.4884 251.626 76.6835 249.995 76.5296Z"
		fill="#F1CB67" />
	<path
		d="M247.368 71.2241L247.186 71.2151C245.547 71.1517 244.269 69.7664 244.333 68.1186L245.973 27.2853C246.036 25.6465 247.422 24.3699 249.071 24.4333L249.252 24.4423C250.892 24.5057 252.169 25.891 252.106 27.5388L250.466 68.3721C250.393 70.0109 249.007 71.2966 247.368 71.2241Z"
		fill="#F1CB67" />
	<path
		d="M286.277 56.5655C286.476 55.3613 285.923 54.2205 284.782 53.1431C284.836 53.8312 284.8 54.5193 284.637 55.1893C283.215 61.3278 273.24 64.2523 262.379 61.7262C251.508 59.2002 243.862 52.1833 245.284 46.0448C245.438 45.3929 245.692 44.7772 246.027 44.1978C244.586 44.6686 243.617 45.4381 243.273 46.5789L240.166 84.9587C240.148 85.2303 240.166 85.4929 240.211 85.7464C240.211 85.7554 240.202 85.7645 240.202 85.7645C239.722 87.8378 246.353 91.1425 255.014 93.1525C261.527 94.6645 267.325 95.0086 270.015 94.2118C270.052 94.2028 270.079 94.1937 270.115 94.1756C270.822 93.9493 271.302 93.6414 271.501 93.2431C271.728 92.9805 271.918 92.6908 272.045 92.3558L286.277 56.5655Z"
		fill="#F50F0F" />
	<path
		d="M47.1268 95.4542L30.6845 98.9853L26.2999 99.9269L9.85767 103.458L25.4031 153.264C25.4031 153.3 25.394 153.336 25.4031 153.372C25.7745 155.084 32.3514 155.12 40.097 153.454C47.8425 151.788 53.8306 149.054 53.4591 147.351C53.4501 147.315 53.4229 147.288 53.4138 147.252L47.1268 95.4542Z"
		fill="#F50F0F" />
	<path
		d="M47.4297 83.3577L28.3603 87.45L23.2781 88.5456L4.20874 92.638L22.2364 150.411C22.2364 150.447 22.2273 150.493 22.2364 150.538C22.6621 152.521 30.2899 152.566 39.2765 150.629C48.2632 148.691 55.2024 145.531 54.7766 143.548C54.7676 143.512 54.7404 143.476 54.7223 143.44L47.4297 83.3577Z"
		fill="#FDF0B9" />
	<path
		d="M40.2009 105.196L39.7751 105.223C38.8873 105.286 38.1082 104.625 38.0448 103.729L36.9849 89.451C36.9215 88.5637 37.5828 87.785 38.4797 87.7217L38.9054 87.6945C39.7932 87.6311 40.5723 88.2921 40.6357 89.1884L41.6956 103.467C41.75 104.354 41.0887 105.132 40.2009 105.196Z"
		fill="black" />
	<path
		d="M27.1604 94.2658C40.4901 91.4044 50.6188 85.934 49.7835 82.0473C48.9483 78.1607 37.4653 77.3296 24.1356 80.1911C10.8059 83.0525 0.677132 88.5229 1.51242 92.4096C2.3477 96.2962 13.8307 97.1273 27.1604 94.2658Z"
		fill="#F50F0F" />
	<mask id="mask0_205_5723" style="mask-type:alpha" maskUnits="userSpaceOnUse" x="9" y="91" width="43" height="58">
		<path
			d="M45.4059 91.0681L29.499 94.5061L25.2597 95.4264L9.35278 98.8643L24.3906 147.399C24.3906 147.429 24.3831 147.467 24.3906 147.505C24.7458 149.171 31.1086 149.209 38.6048 147.581C46.1011 145.954 51.8895 143.299 51.5344 141.633C51.5268 141.603 51.5041 141.572 51.489 141.542L45.4059 91.0681Z"
			fill="#A03AB4" />
	</mask>
	<g mask="url(#mask0_205_5723)">
		<path
			d="M10.6406 108.048C10.6406 108.048 15.8677 100.669 20.4154 101.212C24.9721 101.755 25.8418 103.285 31.9839 101.556C38.1259 99.8178 38.7963 96.5584 44.5217 97.1922C48.5349 97.6358 53.0554 101.547 53.0554 101.547L56.3982 153.191L21.1582 160.76L10.6406 108.048Z"
			fill="#F1CB67" />
	</g>
	<path
		d="M38.2168 56.7843C38.2349 56.8749 38.244 56.9563 38.2531 57.0469L39.4036 72.6016L40.237 83.7561C39.1408 84.2631 37.945 84.752 36.6768 85.2319L35.7437 72.5925L34.6204 57.3094C34.5479 56.3045 35.2907 55.4262 36.3054 55.3538C37.2113 55.2904 38.0266 55.9151 38.2168 56.7843Z"
		fill="black" />
	<mask id="mask1_205_5723" style="mask-type:alpha" maskUnits="userSpaceOnUse" x="26" y="0" width="260" height="245">
		<path
			d="M70.519 40.8243C83.5279 6.29251 109.093 -0.00904422 123.361 9.73434e-06C164.58 0.00906369 180.497 13.4723 206.976 43.7578C231.807 72.16 249.527 67.8775 263.786 78.7785C287.032 96.5604 300.24 157.946 255.207 195.484C191.367 248.712 150.357 251.944 95.187 234.76C57.9812 223.171 26.7998 191.5 26.0479 156.434C24.5984 88.6835 56.4502 78.1719 70.519 40.8243Z"
			fill="#FFF3F3" />
	</mask>
	<g mask="url(#mask1_205_5723)">
		<path
			d="M100.909 60.2858H183.211C192.415 60.2858 199.879 67.7462 199.879 76.945V249.613C199.879 258.812 192.415 266.272 183.211 266.272H100.909C91.7047 266.272 84.24 258.812 84.24 249.613V76.936C84.24 67.7372 91.7047 60.2858 100.909 60.2858Z"
			fill="black" />
		<path
			d="M102.947 67.7644H181.163C187.36 67.7644 192.388 72.7893 192.388 78.9823V247.567C192.388 253.76 187.36 258.785 181.163 258.785H102.947C96.7507 258.785 91.7229 253.76 91.7229 247.567V78.9823C91.7229 72.7803 96.7507 67.7644 102.947 67.7644Z"
			fill="#EC363F" />
		<path
			d="M104.986 111.079H179.125C181.943 111.079 184.226 113.36 184.226 116.176V159.68C184.226 162.496 181.943 164.778 179.125 164.778H104.986C102.168 164.778 99.8853 162.496 99.8853 159.68V116.176C99.8853 113.36 102.168 111.079 104.986 111.079Z"
			fill="white" />
		<path
			d="M104.986 172.256H179.125C181.943 172.256 184.226 174.538 184.226 177.353V194.348C184.226 197.163 181.943 199.445 179.125 199.445H104.986C102.168 199.445 99.8853 197.163 99.8853 194.348V177.353C99.8853 174.538 102.168 172.256 104.986 172.256Z"
			fill="white" />
		<path
			d="M104.986 206.924H179.125C181.943 206.924 184.226 209.205 184.226 212.021V229.015C184.226 231.831 181.943 234.113 179.125 234.113H104.986C102.168 234.113 99.8853 231.831 99.8853 229.015V212.021C99.8853 209.205 102.168 206.924 104.986 206.924Z"
			fill="white" />
		<mask id="mask2_205_5723" style="mask-type:alpha" maskUnits="userSpaceOnUse" x="96" y="68" width="101"
			height="192">
			<path
				d="M107.466 68.9496H185.682C191.879 68.9496 196.906 73.9745 196.906 80.1674V248.752C196.906 254.945 191.879 259.97 185.682 259.97H107.466C101.27 259.97 96.2417 254.945 96.2417 248.752V80.1674C96.2417 73.9655 101.27 68.9496 107.466 68.9496Z"
				fill="white" />
		</mask>
		<g mask="url(#mask2_205_5723)">
			<path
				d="M87.3056 241.591H161.445C164.263 241.591 166.546 243.873 166.546 246.689V263.683C166.546 266.499 164.263 268.78 161.445 268.78H87.3056C84.4882 268.78 82.2053 266.499 82.2053 263.683V246.689C82.2053 243.882 84.4882 241.591 87.3056 241.591Z"
				fill="#3DA2A3" />
		</g>
		<path
			d="M170.093 116.574H116.472C115.992 119.499 116.472 127.828 116.472 127.828C116.472 132.509 128.476 136.303 143.287 136.303C158.099 136.303 170.102 132.509 170.102 127.828C170.456 121.192 170.093 116.574 170.093 116.574Z"
			fill="#F1CB67" />
		<path
			d="M169.423 115.216C171.969 115.08 174.043 117.76 173.192 119.39C172.331 121.02 169.16 122.242 168.118 122.55C165.736 123.256 167.457 126.914 162.973 125.827C160.654 125.266 159.965 126.841 158.679 128.1C157.392 129.358 153.959 128.48 150.743 127.086C147.527 125.701 144.737 129.612 141.621 129.232C138.513 128.851 135.723 127.339 133.685 128.1C131.646 128.86 130.469 128.1 127.996 125.701C125.532 123.301 123.058 126.588 120.812 125.701C118.556 124.813 119.417 122.667 116.953 121.536C114.489 120.404 112.015 119.978 112.015 118.566C112.015 115.37 116.907 114.573 116.907 114.573L169.423 115.216Z"
			fill="#F50F0F" />
		<path
			d="M170.093 111.567C170.093 121.382 158.09 123.528 143.278 123.528C128.466 123.528 116.463 121.391 116.463 111.567C116.463 101.744 128.466 93.7855 143.278 93.7855C158.09 93.7855 170.093 101.744 170.093 111.567Z"
			fill="#F1CB67" />
		<path
			d="M161.451 80.6105H123.955C122.922 80.6105 122.08 79.7685 122.08 78.7363C122.08 77.7042 122.922 76.8622 123.955 76.8622H161.451C162.483 76.8622 163.326 77.7042 163.326 78.7363C163.326 79.7685 162.483 80.6105 161.451 80.6105Z"
			fill="white" />
		<path
			d="M167.049 150.49H118.348C117.315 150.49 116.472 149.648 116.472 148.616C116.472 147.584 117.315 146.742 118.348 146.742H167.058C168.091 146.742 168.934 147.584 168.934 148.616C168.934 149.648 168.091 150.49 167.049 150.49Z"
			fill="#405394" />
		<path
			d="M158.026 157.235H127.37C126.338 157.235 125.495 156.393 125.495 155.361C125.495 154.329 126.338 153.487 127.37 153.487H158.026C159.059 153.487 159.902 154.329 159.902 155.361C159.902 156.393 159.068 157.235 158.026 157.235Z"
			fill="#405394" />
		<path
			d="M120.259 193.723H109.116C107.848 193.723 106.815 192.691 106.815 191.423V180.287C106.815 179.019 107.848 177.987 109.116 177.987H120.259C121.527 177.987 122.56 179.019 122.56 180.287V191.423C122.56 192.691 121.527 193.723 120.259 193.723Z"
			fill="#405394" />
		<path
			d="M161.587 182.242H128.422C127.733 182.242 127.18 181.69 127.18 181.002C127.18 180.314 127.733 179.762 128.422 179.762H161.587C162.275 179.762 162.828 180.314 162.828 181.002C162.828 181.69 162.275 182.242 161.587 182.242Z"
			fill="#405394" />
		<path
			d="M161.587 187.177H128.422C127.733 187.177 127.18 186.625 127.18 185.936C127.18 185.248 127.733 184.696 128.422 184.696H161.587C162.275 184.696 162.828 185.248 162.828 185.936C162.828 186.616 162.275 187.177 161.587 187.177Z"
			fill="#405394" />
		<path
			d="M156.749 191.948H128.422C127.733 191.948 127.18 191.396 127.18 190.708C127.18 190.02 127.733 189.468 128.422 189.468H156.749C157.438 189.468 157.99 190.02 157.99 190.708C158 191.387 157.438 191.948 156.749 191.948Z"
			fill="#405394" />
		<path
			d="M120.259 228.391H109.116C107.848 228.391 106.815 227.358 106.815 226.091V214.954C106.815 213.687 107.848 212.655 109.116 212.655H120.259C121.527 212.655 122.56 213.687 122.56 214.954V226.091C122.56 227.358 121.527 228.391 120.259 228.391Z"
			fill="#405394" />
		<path
			d="M161.587 216.496H128.421C127.733 216.496 127.18 215.943 127.18 215.255C127.18 214.567 127.733 214.015 128.421 214.015H161.587C162.275 214.015 162.828 214.567 162.828 215.255C162.828 215.943 162.275 216.496 161.587 216.496Z"
			fill="#405394" />
		<path
			d="M161.587 221.43H128.421C127.733 221.43 127.18 220.878 127.18 220.19C127.18 219.501 127.733 218.949 128.421 218.949H161.587C162.275 218.949 162.828 219.501 162.828 220.19C162.828 220.878 162.275 221.43 161.587 221.43Z"
			fill="#405394" />
		<path
			d="M156.749 226.165H128.421C127.733 226.165 127.18 225.613 127.18 224.925C127.18 224.237 127.733 223.684 128.421 223.684H156.749C157.438 223.684 157.99 224.237 157.99 224.925C157.999 225.604 157.438 226.165 156.749 226.165Z"
			fill="#405394" />
	</g>
	<path
		d="M276.049 235.762C270.061 224.897 268.358 194.539 264.29 177.671C257.713 150.374 244.913 152.157 238.064 154.973C237.829 155.073 235.192 150.7 228.869 150.7C221.413 150.7 221.477 154.194 219.266 154.584C217.609 154.873 214.184 153.389 209.437 154.475C204.663 155.571 202.724 159.237 201.13 160.433L195.242 138.477C193.448 131.795 186.572 127.829 179.886 129.622C173.201 131.415 169.233 138.287 171.027 144.968L186.88 204.046L174.342 195.544C168.617 191.66 160.817 193.145 156.931 198.876C153.044 204.598 154.53 212.393 160.264 216.277L195.024 239.863C202.879 245.431 213.07 253.263 216.82 258.822C223.252 268.356 232.819 308.121 232.819 308.121C281.185 319.655 293.587 287.423 293.587 287.423L276.049 235.762Z"
		fill="#F0C7A9" />
	<path
		d="M288.243 263.802L281.983 244.308C281.022 241.321 278.196 239.383 275.143 239.628L237.711 242.606C237.249 242.643 236.814 242.742 236.397 242.869L235.899 241.475L233.29 244.879C233.118 245.087 232.946 245.295 232.801 245.522L232.71 245.648L232.719 245.667C232.466 246.065 232.239 246.49 232.067 246.934C231.542 248.328 231.46 249.931 231.967 251.497L238.227 270.99C239.187 273.978 242.014 275.916 245.067 275.671L282.499 272.693C286.766 272.349 289.592 267.985 288.243 263.802Z"
		fill="#EC363F" />
	<path d="M285.316 265.35L291.123 280.198C291.123 280.198 297.13 253.263 281.992 244.308L285.316 265.35Z"
		fill="black" />
	<path
		d="M282.191 269.47L247.132 272.267C244.269 272.494 241.615 270.547 240.7 267.559L234.739 248.039C233.462 243.847 236.08 239.501 240.093 239.184L275.152 236.386C278.015 236.16 280.669 238.107 281.584 241.094L287.545 260.615C288.822 264.807 286.195 269.153 282.191 269.47Z"
		fill="#EC363F" />
	<path
		d="M238.209 270.99C238.209 270.99 224.584 276.839 228.298 290.891C228.298 290.891 217.88 295.554 215.661 284.571C213.432 273.598 212.943 254.322 231.677 250.266L238.209 270.99Z"
		fill="black" />
	<path d="M199.373 153.389L207.444 180.768" stroke="black" stroke-width="1.75615" stroke-miterlimit="10"
		stroke-linecap="round" />
	<path d="M219.991 155.073C219.991 155.073 227.211 165.928 228.335 179.084" stroke="black" stroke-width="1.75615"
		stroke-miterlimit="10" stroke-linecap="round" />
	<path d="M238.209 155.489C238.209 155.489 245.429 166.345 246.552 179.5" stroke="black" stroke-width="1.75615"
		stroke-miterlimit="10" stroke-linecap="round" />
	<path
		d="M47.6702 225.55C54.8498 225.55 60.67 219.733 60.67 212.557C60.67 205.382 54.8498 199.565 47.6702 199.565C40.4906 199.565 34.6704 205.382 34.6704 212.557C34.6704 219.733 40.4906 225.55 47.6702 225.55Z"
		fill="#405394" />
	<path
		d="M301.541 139.283C302.012 137.635 299.621 135.417 295.761 133.579C295.01 133.217 294.566 132.429 294.665 131.596C295.164 127.35 294.548 124.144 292.899 123.674C291.25 123.203 289.031 125.593 287.192 129.45C286.829 130.202 286.041 130.645 285.208 130.546C280.959 130.048 277.752 130.663 277.281 132.311C276.81 133.959 279.201 136.177 283.061 138.015C283.812 138.377 284.256 139.165 284.157 139.998C283.658 144.244 284.275 147.449 285.923 147.92C287.572 148.391 289.791 146.001 291.63 142.144C291.993 141.392 292.781 140.949 293.614 141.048C297.854 141.546 301.061 140.931 301.541 139.283Z"
		fill="#405394" />
	<path
		d="M108.809 10.7163C108.446 9.04134 105.285 8.21743 101.009 8.43472C100.175 8.47999 99.4143 7.99108 99.1063 7.21244C97.5209 3.23775 95.4555 0.711692 93.7886 1.07385C92.1127 1.43601 91.2883 4.59584 91.5057 8.86931C91.551 9.70228 91.0618 10.4628 90.2827 10.7706C86.3058 12.3551 83.7783 14.4194 84.1406 16.0853C84.503 17.7603 87.6646 18.5842 91.9405 18.3669C92.774 18.3216 93.5349 18.8106 93.8429 19.5892C95.4283 23.5639 97.4938 26.0899 99.1606 25.7278C100.837 25.3656 101.661 22.2058 101.444 17.9323C101.398 17.0994 101.887 16.3388 102.667 16.031C106.643 14.4556 109.171 12.3913 108.809 10.7163Z"
		fill="#F50F0F" />
</svg>
